<svg xmlns="http://www.w3.org/2000/svg" xmlns:xlink="http://www.w3.org/1999/xlink" viewBox="0 0 1200 600">

  <style>
    line, polyline {
      fill: none;
      stroke-linecap: round;
      stroke-linejoin: round;
    }

    @keyframes explode {
      0% {
        opacity: 0;
        transform: scale(0);
      }
      
      10% {
        opacity: 1;
        transform: scale(1);
      }
      
      80% {
        opacity: 0;
        transform: scale(1.5) translateY(10%);
      }
      
      100% {
        opacity: 0;
        transform: scale(0);
      }
    }

    g[id] {
      animation: explode 3s both infinite;
      animation-timing-function: ease-out;
      transform-origin: center;
    }
    
    #g1 {
      animation-delay: 1s;
    }
    
#g1 {
  animation-delay: 1.47619s;
}

#g2 {
  animation-delay: 2.24329s;
}

#g3 {
  animation-delay: 7.81183s;
}

#g4 {
  animation-delay: 5.66604s;
}

#g5 {
  animation-delay: 8.56492s;
}

#g6 {
  animation-delay: 8.94685s;
}

#g7 {
  animation-delay: 9.64336s;
}

#g8 {
  animation-delay: 6.8881s;
}

#g9 {
  animation-delay: 9.26203s;
}

#g10 {
  animation-delay: 4.66229s;
}

#g11 {
  animation-delay: 5.45531s;
}

#g12 {
  animation-delay: 5.12999s;
}
    
    
  </style>

  <defs>
    <linearGradient id="a" x1="624.8" y1="677.71" x2="624.8" y2="57.2" gradientUnits="userSpaceOnUse">
      <stop offset="0" stop-color="#3c539d"/>
      <stop offset="1" stop-color="#262262"/>
    </linearGradient>
  </defs>
  <g>
    <rect width="1200" height="600" fill="url(#a)"/>
	<g transform="translate(200,190) scale(1.8)">
	<path fill="#fff" fill-rule="evenodd" d="M21.7998 125.799h-21l18.7-96.0998h40.3c12.1 0 21 3.2 26.5 9.5 5.6 6.4 7.2 15.2 5 26.7-.9 4.7-2.5 9-4.6 12.9-2.2 3.9-5 7.5-8.5 10.7-4.2 3.9-8.8 6.7-13.9 8.4-5.1 1.7-11.6 2.4998-19.6 2.4998h-18l-4.9 25.4Zm45.9-76.5998c-2.7-2.9-8-4.4-15.9-4.4h-14.3l-7.8 40.3h12.7c8.4 0 14.7-1.6 18.9-4.8 4.1-3.2 6.9-8.5 8.4-15.9 1.3-7.2.6-12.2-2-15.2Z" clip-rule="evenodd"/>
  <path fill="#fff" d="M106.6 4.09961h20.8l-5 25.59999h18.5c11.7 0 19.7 2 24.1 6.1 4.4 4.1 5.8 10.7 4 19.8L160.3 100.4h-21.1l8.3-42.6004c.9-4.8.6-8.1-1-9.9-1.6-1.8-5.1-2.6-10.4-2.6h-16.6L108.8 100.4H87.9004L106.6 4.09961Z"/>
  <path fill="#fff" fill-rule="evenodd" d="M185.2 125.799h-21l18.7-96.0998h40.4c12.1 0 21 3.2 26.5 9.5 5.6 6.4 7.2 15.2 5 26.7-.9 4.7-2.5 9-4.6 12.9-2.2 3.9-5 7.5-8.5 10.7-4.2 3.9-8.8 6.7-13.9 8.4-5.1 1.7-11.6 2.4998-19.6 2.4998h-18l-5 25.4Zm46-76.5998c-2.7-2.9-8-4.4-15.9-4.4h-14.4l-7.8 40.3h12.7c8.4 0 14.7-1.6 18.9-4.8 4.1-3.2 6.9-8.5 8.4-15.9 1.3-7.2.7-12.2-1.9-15.2Z" clip-rule="evenodd"/>
  <path fill="#fff" d="M317.5 48.5c-5.7-13.6-10.5-25.4-5.8-33.6 1.8-2.5 3.8-3.8 6-3.8 4.5 0 8.6 4.9 8.6 4.9l5.7 6.9-3.6-8.2c-.2-.3-6.3-14.2-17.2-14.2-3.8 0-7.8 1.7-11.7 5.1l-.1.1c-9.5 11-.2 31.8 8.1 50.1l6.1 14.2c2.8 7.3 5.6 16 3.9 22.4-2.6 10-11.5 16.8-11.6 16.9l-5.7 4.4 6.9-2.2c.7-.2 16-5.2 19.7-18.5 2.3-10.9-.6-21.8-3.5-30.2.4-.3-.4.3 0 0L318 49.1"/>
  <path fill="#fff" d="m334.4 9.89961-7.1-7.8 5.1 9.29999c.1.1 6.3 11.7-1.6 25.2-2.9 4.2-7.4 8.4-13.1 12.6l-10.3 6.7c-.1-.1-.1-.2 0 0l-.4.3c-11.5 6.6-22.2 10.6-22.4 10.7-15.9 7.1-25.9 18.1-27.3 30.3-1.1 9.2004 3.2 18.2004 11.6 24.5004l.1.1c5.3 3.2 11 4.8 17 4.8 15.7 0 28-10.9 28.5-11.4l7.7-6.9-9.1 4.8c-.1 0-7.7 4-15.6 4-7.1 0-12.1-3.1-15.1-9.4-3.8-13.4004 9.5-22.6004 24.8-33.2004 2-1.4 4.1-2.9 6.2-4.3l.1-.1 9.1-6.8c.1-.2.4-.4.4-.4 7.5-6.2 17.4-15.9 19.7-29.5 1.8-12.3-7.9-23-8.3-23.49999Z"/>
  <path fill="#fff" d="M345.4 83h19.5l-3.5 17.7h-19.5l3.5-17.7Z"/>
  <path fill="#fff" d="m379.951 86.1562 12.796-10.4921c4.602 6.0996 9.989 10.0039 18.632 10.0039 9.429 0 14.255-5.7334 14.255-11.1016 0-5.7334-3.704-8.9053-12.684-8.9053h-8.53l3.062-15.4931h9.846c7.97 0 14.817-3.7818 14.817-10.8575 0-5.0019-4.491-8.2954-10.328-8.2954-6.959 0-11.56 3.1719-17.285 8.7832l-9.541-11.833c7.408-8.2959 15.94-13.7856 28.847-13.7856 16.5 0 26.041 10.1255 26.041 22.2031 0 10.4912-5.949 18.1773-17.51 21.8369 5.5 2.44 10.663 8.2949 10.663 16.835 0 15.4932-13.02 27.4483-32.887 27.4483-16.613 0-25.592-8.1739-30.194-16.3468Z"/>
	</g>
    <g id="g1">
      <polyline points="567.14 143.67 588.41 122.4 567.14 143.67" stroke="#ec008c" />
      <polyline points="555.01 135.56 566.52 107.77 555.01 135.56" stroke="#fff" />
      <line x1="540.7" y1="102.64" x2="540.7" y2="132.72" stroke="#ec008c" />
      <line x1="578.09" y1="170.11" x2="608.17" y2="170.11" stroke="#ec008c" />
      <polyline points="575.24 155.8 603.04 144.29 575.24 155.8" stroke="#fff" />
      <line x1="608.17" y1="170.11" x2="578.09" y2="170.11" stroke="#ec008c" />
      <line x1="540.7" y1="207.49" x2="540.7" y2="237.58" stroke="#ec008c" />
      <polyline points="555.01 204.65 566.52 232.44 555.01 204.65" stroke="#fff" />
      <polyline points="567.14 196.54 588.41 217.81 567.14 196.54" stroke="#ec008c" />
      <polyline points="575.24 184.41 603.04 195.93 575.24 184.41" stroke="#fff" />
      <line x1="473.23" y1="170.11" x2="503.32" y2="170.11" stroke="#ec008c" />
      <line x1="540.7" y1="132.72" x2="540.7" y2="102.64" stroke="#ec008c" />
      <polyline points="526.39 135.56 514.88 107.77 526.39 135.56" stroke="#fff" />
      <polyline points="514.27 143.67 493 122.4 514.27 143.67" stroke="#ec008c" />
      <polyline points="506.16 155.8 478.37 144.29 506.16 155.8" stroke="#fff" />
      <line x1="540.7" y1="237.58" x2="540.7" y2="207.49" stroke="#ec008c" />
      <line x1="503.32" y1="170.11" x2="473.23" y2="170.11" stroke="#ec008c" />
      <polyline points="506.16 184.41 478.37 195.93 506.16 184.41" stroke="#fff" />
      <polyline points="514.27 196.54 493 217.81 514.27 196.54" stroke="#ec008c" />
      <polyline points="526.39 204.65 514.88 232.44 526.39 204.65" stroke="#fff" />
      <polyline points="555.66 163.91 540.7 170.11 556.89 170.11" stroke="#00aeef" />
      <polyline points="546.9 185.06 540.7 170.11 540.7 186.29" stroke="#00aeef" />
      <polyline points="529.26 158.66 540.7 170.11 534.51 155.15" stroke="#00aeef" />
      <polyline points="525.75 176.3 540.7 170.11 524.52 170.11" stroke="#00aeef" />
      <line x1="525.75" y1="163.91" x2="540.7" y2="170.11" stroke="#00aeef" />
      <polyline points="534.51 185.06 540.7 170.11 529.26 181.55" stroke="#00aeef" />
      <polyline points="546.9 155.15 540.7 170.11 552.15 158.66" stroke="#00aeef" />
      <line x1="540.7" y1="170.11" x2="540.7" y2="153.92" stroke="#00aeef" />
      <polyline points="555.66 176.3 540.7 170.11 552.15 181.55" stroke="#00aeef" />
    </g>
    <g id="g2">
      <polyline points="178.22 513.02 188.86 502.38 178.22 513.02" stroke="#00aeef" />
      <polyline points="172.16 508.96 177.91 495.07 172.16 508.96" stroke="#00aeef" />
      <line x1="165.01" y1="492.5" x2="165.01" y2="507.54" stroke="#00aeef" />
      <line x1="183.7" y1="526.23" x2="198.74" y2="526.23" stroke="#00aeef" />
      <polyline points="182.28 519.08 196.17 513.32 182.28 519.08" stroke="#00aeef" />
      <line x1="198.74" y1="526.23" x2="183.7" y2="526.23" stroke="#00aeef" />
      <line x1="165.01" y1="544.93" x2="165.01" y2="559.97" stroke="#00aeef" />
      <polyline points="172.16 543.5 177.91 557.4 172.16 543.5" stroke="#00aeef" />
      <polyline points="178.22 539.45 188.86 550.09 178.22 539.45" stroke="#00aeef" />
      <polyline points="182.28 533.39 196.17 539.14 182.28 533.39" stroke="#00aeef" />
      <line x1="131.27" y1="526.23" x2="146.31" y2="526.23" stroke="#00aeef" />
      <line x1="165.01" y1="507.54" x2="165.01" y2="492.5" stroke="#00aeef" />
      <polyline points="157.85 508.96 152.1 495.07 157.85 508.96" stroke="#00aeef" />
      <polyline points="151.79 513.02 141.15 502.38 151.79 513.02" stroke="#00aeef" />
      <polyline points="147.73 519.08 133.84 513.32 147.73 519.08" stroke="#00aeef" />
      <line x1="165.01" y1="559.97" x2="165.01" y2="544.93" stroke="#00aeef" />
      <line x1="146.31" y1="526.23" x2="131.27" y2="526.23" stroke="#00aeef" />
      <polyline points="147.73 533.39 133.84 539.14 147.73 533.39" stroke="#00aeef" />
      <polyline points="151.79 539.45 141.15 550.09 151.79 539.45" stroke="#00aeef" />
      <polyline points="157.85 543.5 152.1 557.4 157.85 543.5" stroke="#00aeef" />
      <polyline points="172.48 523.14 165 526.23 173.1 526.23" stroke="#00aeef" />
      <polyline points="168.1 533.71 165 526.23 165 534.33" stroke="#00aeef" />
      <polyline points="159.28 520.51 165 526.23 161.91 518.76" stroke="#00aeef" />
      <polyline points="157.53 529.33 165 526.23 156.91 526.23" stroke="#00aeef" />
      <line x1="157.53" y1="523.14" x2="165.01" y2="526.23" stroke="#00aeef" />
      <polyline points="161.91 533.71 165 526.23 159.28 531.96" stroke="#00aeef" />
      <polyline points="168.1 518.76 165 526.23 170.73 520.51" stroke="#00aeef" />
      <line x1="165.01" y1="526.23" x2="165.01" y2="518.14" stroke="#00aeef" />
      <polyline points="172.48 529.33 165 526.23 170.73 531.96" stroke="#00aeef" />
    </g>
    <g id="g3">
      <polyline points="918.51 377.83 895.99 387.16 920.37 387.16" stroke="#ec008c" />
      <polyline points="905.32 409.68 895.99 387.16 895.99 411.54" stroke="#ec008c" />
      <polyline points="878.76 369.93 895.99 387.16 886.66 364.64" stroke="#ec008c" />
      <polyline points="873.47 396.49 895.99 387.16 871.62 387.16" stroke="#ec008c" />
      <line x1="873.47" y1="377.83" x2="895.99" y2="387.16" stroke="#ec008c" />
      <polyline points="886.66 409.68 895.99 387.16 878.76 404.4" stroke="#ec008c" />
      <polyline points="905.32 364.64 895.99 387.16 913.23 369.93" stroke="#ec008c" />
      <line x1="895.99" y1="387.16" x2="895.99" y2="362.79" stroke="#ec008c" />
      <polyline points="918.51 396.49 895.99 387.16 913.23 404.4" stroke="#ec008c" />
    </g>
    <g id="g4">
      <line x1="139.92" y1="136.45" x2="151.76" y2="124.61" stroke="#fff" />
      <line x1="160.79" y1="145.09" x2="160.79" y2="128.35" stroke="#fff" />
      <line x1="181.67" y1="136.45" x2="169.83" y2="124.61" stroke="#fff" />
      <line x1="131.27" y1="115.57" x2="148.01" y2="115.57" stroke="#fff" />
      <line x1="139.92" y1="94.7" x2="151.76" y2="106.54" stroke="#fff" />
      <line x1="160.79" y1="86.05" x2="160.79" y2="102.79" stroke="#fff" />
      <line x1="181.67" y1="94.7" x2="169.83" y2="106.54" stroke="#fff" />
      <line x1="190.32" y1="115.57" x2="173.57" y2="115.57" stroke="#fff" />
    </g>
    <g id="g5">
      <line x1="639.36" y1="300.51" x2="645.28" y2="294.59" stroke="#00aeef" />
      <line x1="649.8" y1="304.83" x2="649.8" y2="296.46" stroke="#00aeef" />
      <line x1="660.24" y1="300.51" x2="654.32" y2="294.59" stroke="#00aeef" />
      <line x1="635.04" y1="290.07" x2="643.41" y2="290.07" stroke="#00aeef" />
      <line x1="639.36" y1="279.63" x2="645.28" y2="285.55" stroke="#00aeef" />
      <line x1="649.8" y1="275.31" x2="649.8" y2="283.68" stroke="#00aeef" />
      <line x1="660.24" y1="279.63" x2="654.32" y2="285.55" stroke="#00aeef" />
      <line x1="664.56" y1="290.07" x2="656.19" y2="290.07" stroke="#00aeef" />
    </g>
    <g id="g6">
      <line x1="1095.75" y1="83.75" x2="1101.67" y2="77.83" stroke="#00aeef" />
      <line x1="1106.18" y1="88.07" x2="1106.18" y2="79.7" stroke="#00aeef" />
      <line x1="1116.62" y1="83.75" x2="1110.7" y2="77.83" stroke="#00aeef" />
      <line x1="1091.42" y1="73.31" x2="1099.79" y2="73.31" stroke="#00aeef" />
      <line x1="1095.75" y1="62.88" x2="1101.67" y2="68.79" stroke="#00aeef" />
      <line x1="1106.18" y1="58.55" x2="1106.18" y2="66.92" stroke="#00aeef" />
      <line x1="1116.62" y1="62.88" x2="1110.7" y2="68.79" stroke="#00aeef" />
      <line x1="1120.94" y1="73.31" x2="1112.57" y2="73.31" stroke="#00aeef" />
    </g>
    <g id="g7">
      <line x1="963.25" y1="512.54" x2="999.35" y2="476.44" stroke="#00aeef" />
      <line x1="990.9" y1="463.79" x2="943.72" y2="483.34" stroke="#00aeef" />
      <line x1="1026.92" y1="538.91" x2="1026.92" y2="487.85" stroke="#00aeef" />
      <line x1="1012" y1="484.89" x2="992.46" y2="532.07" stroke="#00aeef" />
      <line x1="1090.58" y1="512.54" x2="1054.48" y2="476.44" stroke="#00aeef" />
      <line x1="1041.83" y1="484.89" x2="1061.37" y2="532.07" stroke="#00aeef" />
      <line x1="936.88" y1="448.88" x2="987.94" y2="448.88" stroke="#00aeef" />
      <line x1="990.9" y1="433.96" x2="943.72" y2="414.42" stroke="#00aeef" />
      <line x1="963.25" y1="385.21" x2="999.35" y2="421.32" stroke="#00aeef" />
      <line x1="1012" y1="412.86" x2="992.46" y2="365.68" stroke="#00aeef" />
      <line x1="1026.92" y1="358.84" x2="1026.92" y2="409.9" stroke="#00aeef" />
      <line x1="1041.83" y1="412.86" x2="1061.37" y2="365.68" stroke="#00aeef" />
      <line x1="1090.58" y1="385.21" x2="1054.48" y2="421.32" stroke="#00aeef" />
      <line x1="1062.93" y1="433.96" x2="1110.11" y2="414.42" stroke="#00aeef" />
      <line x1="1116.95" y1="448.88" x2="1065.89" y2="448.88" stroke="#00aeef" />
      <line x1="1062.93" y1="463.79" x2="1110.11" y2="483.34" stroke="#00aeef" />
    </g>
    <g id="g8">
      <polyline points="266.8 408.56 244.87 420.19 266.8 408.56" stroke="#fff200" />
      <polyline points="281.75 430.58 262.82 446.66 281.75 430.58" stroke="#fff200" />
      <polyline points="301.07 448.88 286.03 468.65 301.07 448.88" stroke="#fff200" />
      <polyline points="323.86 462.62 313.44 485.14 323.86 462.62" stroke="#fff200" />
      <polyline points="349.08 471.11 343.74 495.35 349.08 471.11" stroke="#fff200" />
      <line x1="375.53" y1="498.81" x2="375.53" y2="473.97" stroke="#fff200" />
      <line x1="252.66" y1="357.58" x2="227.86" y2="358.92" stroke="#fff200" />
      <polyline points="256.94 383.84 233.03 390.48 256.94 383.84" stroke="#fff200" />
      <polyline points="401.99 471.11 407.33 495.35 401.99 471.11" stroke="#fff200" />
      <polyline points="427.21 462.62 437.63 485.14 427.21 462.62" stroke="#fff200" />
      <polyline points="450 448.88 465.03 468.65 450 448.88" stroke="#fff200" />
      <polyline points="469.31 430.58 488.25 446.66 469.31 430.58" stroke="#fff200" />
      <polyline points="484.27 408.56 506.2 420.19 484.27 408.56" stroke="#fff200" />
      <polyline points="494.12 383.84 518.03 390.48 494.12 383.84" stroke="#fff200" />
      <line x1="523.21" y1="358.92" x2="498.4" y2="357.58" stroke="#fff200" />
      <line x1="375.53" y1="473.97" x2="375.53" y2="498.81" stroke="#fff200" />
      <polyline points="362.23 228.58 359.54 203.89 362.23 228.58" stroke="#fff200" />
      <polyline points="336.23 234.28 328.31 210.77 336.23 234.28" stroke="#fff200" />
      <polyline points="312.09 245.47 299.29 224.2 312.09 245.47" stroke="#fff200" />
      <polyline points="290.91 261.58 273.83 243.55 290.91 261.58" stroke="#fff200" />
      <polyline points="273.68 281.86 253.13 267.92 273.68 281.86" stroke="#fff200" />
      <polyline points="261.19 305.36 238.15 296.18 261.19 305.36" stroke="#fff200" />
      <polyline points="254.09 331.01 229.59 326.99 254.09 331.01" stroke="#fff200" />
      <polyline points="496.97 331.01 521.48 326.99 496.97 331.01" stroke="#fff200" />
      <polyline points="489.87 305.36 512.92 296.18 489.87 305.36" stroke="#fff200" />
      <polyline points="477.39 281.86 497.94 267.92 477.39 281.86" stroke="#fff200" />
      <polyline points="460.15 261.58 477.24 243.55 460.15 261.58" stroke="#fff200" />
      <polyline points="438.98 245.47 451.78 224.2 438.98 245.47" stroke="#fff200" />
      <polyline points="414.83 234.28 422.75 210.77 414.83 234.28" stroke="#fff200" />
      <polyline points="388.84 228.58 391.52 203.89 388.84 228.58" stroke="#fff200" />
    </g>
    <g id="g9">
      <polyline points="889.49 93.77 928.79 210.41 915.49 88.08" stroke="#ec008c" />
      <polyline points="942.09 88.08 928.79 210.41 968.09 93.77" stroke="#ec008c" />
      <line x1="928.79" y1="210.41" x2="992.24" y2="104.96" stroke="#ec008c" />
      <polyline points="820.06 268.06 928.79 210.41 810.2 243.34" stroke="#ec008c" />
      <polyline points="814.45 164.85 928.79 210.41 826.93 141.35" stroke="#ec008c" />
      <polyline points="844.17 121.08 928.79 210.41 865.34 104.96" stroke="#ec008c" />
      <polyline points="1013.41 121.08 928.79 210.41 1030.65 141.35" stroke="#ec008c" />
      <polyline points="805.92 217.07 928.79 210.41 807.35 190.5" stroke="#ec008c" />
      <polyline points="955.25 330.6 928.79 210.41 928.79 333.46" stroke="#ec008c" />
      <polyline points="902.33 330.6 928.79 210.41 877.11 322.11" stroke="#ec008c" />
      <polyline points="854.32 308.37 928.79 210.41 835.01 290.07" stroke="#ec008c" />
      <polyline points="1003.26 308.37 928.79 210.41 980.47 322.11" stroke="#ec008c" />
      <polyline points="1043.13 164.85 928.79 210.41 1050.23 190.5" stroke="#ec008c" />
      <polyline points="1051.66 217.07 928.79 210.41 1047.38 243.34" stroke="#ec008c" />
      <polyline points="1037.52 268.06 928.79 210.41 1022.57 290.07" stroke="#ec008c" />
    </g>
    <g id="g10">
      <polyline points="784.92 133.43 805.92 195.73 798.81 130.39" stroke="#fff" />
      <polyline points="813.02 130.39 805.92 195.73 826.91 133.43" stroke="#fff" />
      <line x1="805.92" y1="195.73" x2="839.81" y2="139.41" stroke="#fff" />
      <polyline points="747.84 226.53 805.92 195.73 742.57 213.32" stroke="#fff" />
      <polyline points="744.84 171.4 805.92 195.73 751.51 158.84" stroke="#fff" />
      <polyline points="760.72 148.02 805.92 195.73 772.03 139.41" stroke="#fff" />
      <polyline points="851.12 148.02 805.92 195.73 860.33 158.84" stroke="#fff" />
      <polyline points="740.29 199.29 805.92 195.73 741.05 185.1" stroke="#fff" />
      <polyline points="820.05 259.94 805.92 195.73 805.92 261.46" stroke="#fff" />
      <polyline points="791.79 259.94 805.92 195.73 778.31 255.4" stroke="#fff" />
      <polyline points="766.14 248.06 805.92 195.73 755.82 238.28" stroke="#fff" />
      <polyline points="845.7 248.06 805.92 195.73 833.52 255.4" stroke="#fff" />
      <polyline points="866.99 171.4 805.92 195.73 870.79 185.1" stroke="#fff" />
      <polyline points="871.55 199.29 805.92 195.73 869.26 213.32" stroke="#fff" />
      <polyline points="864 226.53 805.92 195.73 856.01 238.28" stroke="#fff" />
    </g>
    <g id="g11">
      <polyline points="393.84 530.7 414.83 593 407.73 527.66" stroke="#fff" />
      <polyline points="421.94 527.66 414.83 593 435.83 530.7" stroke="#fff" />
      <line x1="414.83" y1="593" x2="448.73" y2="536.68" stroke="#fff" />
      <polyline points="356.75 623.8 414.83 593 351.49 610.59" stroke="#fff" />
      <polyline points="353.76 568.67 414.83 593 360.43 556.12" stroke="#fff" />
      <polyline points="369.63 545.29 414.83 593 380.94 536.68" stroke="#fff" />
      <polyline points="460.04 545.29 414.83 593 469.24 556.12" stroke="#fff" />
      <polyline points="349.2 596.56 414.83 593 349.97 582.37" stroke="#fff" />
      <polyline points="428.97 657.21 414.83 593 414.83 658.73" stroke="#fff" />
      <polyline points="400.7 657.21 414.83 593 387.23 652.67" stroke="#fff" />
      <polyline points="375.06 645.33 414.83 593 364.74 635.55" stroke="#fff" />
      <polyline points="454.61 645.33 414.83 593 442.44 652.67" stroke="#fff" />
      <polyline points="475.91 568.67 414.83 593 479.7 582.37" stroke="#fff" />
      <polyline points="480.47 596.56 414.83 593 478.18 610.59" stroke="#fff" />
      <polyline points="472.91 623.8 414.83 593 464.93 635.55" stroke="#fff" />
    </g>
    <g id="g12">
      <polyline points="973.66 542.24 994.94 520.96 973.66 542.24" stroke="#ec008c" />
      <polyline points="961.54 534.13 973.05 506.34 961.54 534.13" stroke="#fff" />
      <line x1="947.23" y1="501.2" x2="947.23" y2="531.29" stroke="#ec008c" />
      <line x1="984.61" y1="568.67" x2="1014.7" y2="568.67" stroke="#ec008c" />
      <polyline points="981.77 554.36 1009.56 542.85 981.77 554.36" stroke="#fff" />
      <line x1="1014.7" y1="568.67" x2="984.61" y2="568.67" stroke="#ec008c" />
      <line x1="947.23" y1="606.05" x2="947.23" y2="636.14" stroke="#ec008c" />
      <polyline points="961.54 603.21 973.05 631 961.54 603.21" stroke="#fff" />
      <polyline points="973.66 595.1 994.94 616.38 973.66 595.1" stroke="#ec008c" />
      <polyline points="981.77 582.98 1009.56 594.49 981.77 582.98" stroke="#fff" />
      <line x1="879.76" y1="568.67" x2="909.85" y2="568.67" stroke="#ec008c" />
      <line x1="947.23" y1="531.29" x2="947.23" y2="501.2" stroke="#ec008c" />
      <polyline points="932.92 534.13 921.41 506.34 932.92 534.13" stroke="#fff" />
      <polyline points="920.79 542.24 899.52 520.96 920.79 542.24" stroke="#ec008c" />
      <polyline points="912.69 554.36 884.9 542.85 912.69 554.36" stroke="#fff" />
      <line x1="947.23" y1="636.14" x2="947.23" y2="606.05" stroke="#ec008c" />
      <line x1="909.85" y1="568.67" x2="879.76" y2="568.67" stroke="#ec008c" />
      <polyline points="912.69 582.98 884.9 594.49 912.69 582.98" stroke="#fff" />
      <polyline points="920.79 595.1 899.52 616.38 920.79 595.1" stroke="#ec008c" />
      <polyline points="932.92 603.21 921.41 631 932.92 603.21" stroke="#fff" />
      <polyline points="962.18 562.48 947.23 568.67 963.41 568.67" stroke="#00aeef" />
      <polyline points="953.42 583.62 947.23 568.67 947.23 584.85" stroke="#00aeef" />
      <polyline points="935.79 557.23 947.23 568.67 941.03 553.72" stroke="#00aeef" />
      <polyline points="932.28 574.86 947.23 568.67 931.05 568.67" stroke="#00aeef" />
      <line x1="932.28" y1="562.48" x2="947.23" y2="568.67" stroke="#00aeef" />
      <polyline points="941.03 583.62 947.23 568.67 935.79 580.11" stroke="#00aeef" />
      <polyline points="953.42 553.72 947.23 568.67 958.67 557.23" stroke="#00aeef" />
      <line x1="947.23" y1="568.67" x2="947.23" y2="552.49" stroke="#00aeef" />
      <polyline points="962.18 574.86 947.23 568.67 958.67 580.11" stroke="#00aeef" />
    </g>
  </g>
</svg>
