<svg version="1.1" viewBox="0.0 0.0 1222.0 756.0" fill="none" stroke="none" stroke-linecap="square" stroke-miterlimit="10" width="1222" height="756" xmlns:xlink="http://www.w3.org/1999/xlink" xmlns="http://www.w3.org/2000/svg"><path fill="#ffffff" fill-opacity="0.0" d="M0 0L1222.0 0L1222.0 756.0L0 756.0L0 0Z" fill-rule="nonzero"/><path stroke="#333333" stroke-width="1.0" stroke-linecap="butt" d="M0.5 756.5L1222.5 756.5" fill-rule="nonzero"/><path stroke="#cccccc" stroke-width="1.0" stroke-linecap="butt" d="M0.5 504.5L1222.5 504.5" fill-rule="nonzero"/><path stroke="#cccccc" stroke-width="1.0" stroke-linecap="butt" d="M0.5 252.5L1222.5 252.5" fill-rule="nonzero"/><path stroke="#cccccc" stroke-width="1.0" stroke-linecap="butt" d="M0.5 0.5L1222.5 0.5" fill-rule="nonzero"/><clipPath id="id_0"><path d="M0 0L1222.0 0L1222.0 756.0L0 756.0L0 0Z" clip-rule="nonzero"/></clipPath><path stroke="#6758f5" stroke-width="2.0" stroke-linecap="butt" clip-path="url(#id_0)" d="M245.0 756.0L128.0 756.0L128.0 615.0C128.0 613.89545 128.89543 613.0 130.0 613.0L243.0 613.0C244.10457 613.0 245.0 613.89545 245.0 615.0Z" fill-rule="nonzero"/><path fill="#6758f5" clip-path="url(#id_0)" d="M245.0 756.0L128.0 756.0L128.0 615.0C128.0 613.89545 128.89543 613.0 130.0 613.0L243.0 613.0C244.10457 613.0 245.0 613.89545 245.0 615.0Z" fill-rule="nonzero"/><path stroke="#6758f5" stroke-width="2.0" stroke-linecap="butt" clip-path="url(#id_0)" d="M610.0 756.0L493.0 756.0L493.0 404.0C493.0 402.89542 493.89542 402.0 495.0 402.0L608.0 402.0C609.10455 402.0 610.0 402.89542 610.0 404.0Z" fill-rule="nonzero"/><path fill="#6758f5" clip-path="url(#id_0)" d="M610.0 756.0L493.0 756.0L493.0 404.0C493.0 402.89542 493.89542 402.0 495.0 402.0L608.0 402.0C609.10455 402.0 610.0 402.89542 610.0 404.0Z" fill-rule="nonzero"/><path stroke="#6758f5" stroke-width="2.0" stroke-linecap="butt" clip-path="url(#id_0)" d="M975.0 756.0L858.0 756.0L858.0 114.0C858.0 112.89543 858.89545 112.0 860.0 112.0L973.0 112.0C974.10455 112.0 975.0 112.89543 975.0 114.0Z" fill-rule="nonzero"/><path fill="#6758f5" clip-path="url(#id_0)" d="M975.0 756.0L858.0 756.0L858.0 114.0C858.0 112.89543 858.89545 112.0 860.0 112.0L973.0 112.0C974.10455 112.0 975.0 112.89543 975.0 114.0Z" fill-rule="nonzero"/><path stroke="#000000" stroke-width="2.0" stroke-linecap="butt" stroke-opacity="0.0" clip-path="url(#id_0)" d="M364.0 756.0L247.0 756.0L247.0 480.0C247.0 478.89542 247.89543 478.0 249.0 478.0L362.0 478.0C363.10458 478.0 364.0 478.89542 364.0 480.0Z" fill-rule="nonzero"/><path fill="#fe4d7f" clip-path="url(#id_0)" d="M364.0 756.0L247.0 756.0L247.0 480.0C247.0 478.89542 247.89543 478.0 249.0 478.0L362.0 478.0C363.10458 478.0 364.0 478.89542 364.0 480.0Z" fill-rule="nonzero"/><path stroke="#fe4d7f" stroke-width="2.0" stroke-linecap="butt" clip-path="url(#id_0)" d="M729.0 756.0L612.0 756.0L612.0 548.0C612.0 546.89545 612.89545 546.0 614.0 546.0L727.0 546.0C728.10455 546.0 729.0 546.89545 729.0 548.0Z" fill-rule="nonzero"/><path fill="#fe4d7f" clip-path="url(#id_0)" d="M729.0 756.0L612.0 756.0L612.0 548.0C612.0 546.89545 612.89545 546.0 614.0 546.0L727.0 546.0C728.10455 546.0 729.0 546.89545 729.0 548.0Z" fill-rule="nonzero"/><path stroke="#fe4d7f" stroke-width="2.0" stroke-linecap="butt" clip-path="url(#id_0)" d="M1094.0 756.0L977.0 756.0L977.0 322.0C977.0 320.89542 977.89545 320.0 979.0 320.0L1092.0 320.0C1093.1046 320.0 1094.0 320.89542 1094.0 322.0Z" fill-rule="nonzero"/><path fill="#fe4d7f" clip-path="url(#id_0)" d="M1094.0 756.0L977.0 756.0L977.0 322.0C977.0 320.89542 977.89545 320.0 979.0 320.0L1092.0 320.0C1093.1046 320.0 1094.0 320.89542 1094.0 322.0Z" fill-rule="nonzero"/><path stroke="#6758f5" stroke-width="3.0" stroke-linejoin="round" stroke-linecap="round" d="M182.42188 687.8715L182.42188 689.184L176.59375 689.184L176.59375 688.059L179.34375 685.1059Q179.76562 684.63715 180.0 684.2934Q180.25 683.934 180.34375 683.6528Q180.45312 683.3559 180.45312 683.1059Q180.45312 682.7153 180.32812 682.434Q180.20312 682.1528 179.95312 681.9965Q179.70312 681.8403 179.34375 681.8403Q178.95312 681.8403 178.67188 682.0434Q178.39062 682.2309 178.25 682.57465Q178.10938 682.9028 178.10938 683.32465L176.42188 683.32465Q176.42188 682.559 176.78125 681.9184Q177.14062 681.2778 177.79688 680.9028Q178.46875 680.5278 179.375 680.5278Q180.26562 680.5278 180.89062 680.82465Q181.51562 681.1059 181.82812 681.6528Q182.14062 682.19965 182.14062 682.94965Q182.14062 683.3715 182.0 683.7778Q181.875 684.1684 181.625 684.57465Q181.375 684.9653 181.01562 685.3715Q180.67188 685.76215 180.25 686.19965L178.76562 687.8715L182.42188 687.8715ZM189.32812 686.8403Q189.32812 687.6528 188.95312 688.19965Q188.57812 688.7465 187.92188 689.0278Q187.28125 689.309 186.45312 689.309Q185.625 689.309 184.96875 689.0278Q184.3125 688.7465 183.92188 688.19965Q183.54688 687.6528 183.54688 686.8403Q183.54688 686.309 183.76562 685.8715Q183.98438 685.434 184.375 685.1215Q184.76562 684.809 185.28125 684.63715Q185.8125 684.4653 186.4375 684.4653Q187.26562 684.4653 187.92188 684.76215Q188.57812 685.059 188.95312 685.5903Q189.32812 686.1215 189.32812 686.8403ZM187.64062 686.7309Q187.64062 686.3403 187.48438 686.059Q187.34375 685.7778 187.0625 685.6215Q186.79688 685.4653 186.4375 685.4653Q186.07812 685.4653 185.8125 685.6215Q185.54688 685.7778 185.39062 686.059Q185.25 686.3403 185.25 686.7309Q185.25 687.1215 185.39062 687.4028Q185.54688 687.684 185.8125 687.8403Q186.09375 687.9809 186.45312 687.9809Q186.8125 687.9809 187.07812 687.8403Q187.34375 687.684 187.48438 687.4028Q187.64062 687.1215 187.64062 686.7309ZM189.15625 682.9184Q189.15625 683.559 188.8125 684.059Q188.46875 684.559 187.84375 684.8403Q187.23438 685.1215 186.45312 685.1215Q185.65625 685.1215 185.04688 684.8403Q184.4375 684.559 184.07812 684.059Q183.73438 683.559 183.73438 682.9184Q183.73438 682.13715 184.07812 681.6059Q184.4375 681.07465 185.04688 680.809Q185.65625 680.5278 186.4375 680.5278Q187.23438 680.5278 187.84375 680.809Q188.45312 681.07465 188.79688 681.6059Q189.15625 682.13715 189.15625 682.9184ZM187.46875 682.9965Q187.46875 682.63715 187.34375 682.38715Q187.21875 682.13715 186.98438 681.9965Q186.76562 681.8403 186.4375 681.8403Q186.125 681.8403 185.89062 681.9809Q185.67188 682.1215 185.54688 682.38715Q185.4375 682.63715 185.4375 682.9965Q185.4375 683.3403 185.54688 683.6059Q185.67188 683.8559 185.89062 684.01215Q186.125 684.1528 186.45312 684.1528Q186.78125 684.1528 187.0 684.01215Q187.21875 683.8559 187.34375 683.6059Q187.46875 683.3403 187.46875 682.9965ZM192.3125 684.184L193.21875 684.184Q193.65625 684.184 193.9375 684.0434Q194.21875 683.88715 194.34375 683.6215Q194.48438 683.3403 194.48438 682.9809Q194.48438 682.6528 194.35938 682.4028Q194.23438 682.13715 193.96875 681.9965Q193.71875 681.8403 193.32812 681.8403Q193.01562 681.8403 192.75 681.9809Q192.48438 682.1059 192.32812 682.32465Q192.17188 682.5434 192.17188 682.8559L190.48438 682.8559Q190.48438 682.1528 190.85938 681.63715Q191.23438 681.1215 191.875 680.82465Q192.51562 680.5278 193.28125 680.5278Q194.15625 680.5278 194.79688 680.809Q195.45312 681.0903 195.8125 681.63715Q196.17188 682.1684 196.17188 682.9653Q196.17188 683.3715 195.98438 683.7465Q195.79688 684.1215 195.45312 684.434Q195.10938 684.7309 194.60938 684.9028Q194.10938 685.07465 193.48438 685.07465L192.3125 685.07465L192.3125 684.184ZM192.3125 685.4653L192.3125 684.5903L193.48438 684.5903Q194.1875 684.5903 194.70312 684.76215Q195.23438 684.9184 195.59375 685.2153Q195.95312 685.4965 196.125 685.9028Q196.3125 686.309 196.3125 686.7934Q196.3125 687.38715 196.07812 687.8559Q195.85938 688.32465 195.4375 688.6528Q195.03125 688.9653 194.48438 689.13715Q193.9375 689.309 193.28125 689.309Q192.75 689.309 192.21875 689.1528Q191.70312 688.9965 191.28125 688.69965Q190.875 688.4028 190.625 687.94965Q190.375 687.4809 190.375 686.8403L192.0625 686.8403Q192.0625 687.1684 192.21875 687.434Q192.39062 687.684 192.67188 687.8403Q192.96875 687.9809 193.32812 687.9809Q193.73438 687.9809 194.01562 687.8403Q194.3125 687.684 194.46875 687.4184Q194.625 687.13715 194.625 686.7778Q194.625 686.309 194.45312 686.0278Q194.28125 685.7309 193.96875 685.6059Q193.65625 685.4653 193.21875 685.4653L192.3125 685.4653Z" fill-rule="nonzero"/><path fill="#ffffff" d="M182.42188 687.8715L182.42188 689.184L176.59375 689.184L176.59375 688.059L179.34375 685.1059Q179.76562 684.63715 180.0 684.2934Q180.25 683.934 180.34375 683.6528Q180.45312 683.3559 180.45312 683.1059Q180.45312 682.7153 180.32812 682.434Q180.20312 682.1528 179.95312 681.9965Q179.70312 681.8403 179.34375 681.8403Q178.95312 681.8403 178.67188 682.0434Q178.39062 682.2309 178.25 682.57465Q178.10938 682.9028 178.10938 683.32465L176.42188 683.32465Q176.42188 682.559 176.78125 681.9184Q177.14062 681.2778 177.79688 680.9028Q178.46875 680.5278 179.375 680.5278Q180.26562 680.5278 180.89062 680.82465Q181.51562 681.1059 181.82812 681.6528Q182.14062 682.19965 182.14062 682.94965Q182.14062 683.3715 182.0 683.7778Q181.875 684.1684 181.625 684.57465Q181.375 684.9653 181.01562 685.3715Q180.67188 685.76215 180.25 686.19965L178.76562 687.8715L182.42188 687.8715ZM189.32812 686.8403Q189.32812 687.6528 188.95312 688.19965Q188.57812 688.7465 187.92188 689.0278Q187.28125 689.309 186.45312 689.309Q185.625 689.309 184.96875 689.0278Q184.3125 688.7465 183.92188 688.19965Q183.54688 687.6528 183.54688 686.8403Q183.54688 686.309 183.76562 685.8715Q183.98438 685.434 184.375 685.1215Q184.76562 684.809 185.28125 684.63715Q185.8125 684.4653 186.4375 684.4653Q187.26562 684.4653 187.92188 684.76215Q188.57812 685.059 188.95312 685.5903Q189.32812 686.1215 189.32812 686.8403ZM187.64062 686.7309Q187.64062 686.3403 187.48438 686.059Q187.34375 685.7778 187.0625 685.6215Q186.79688 685.4653 186.4375 685.4653Q186.07812 685.4653 185.8125 685.6215Q185.54688 685.7778 185.39062 686.059Q185.25 686.3403 185.25 686.7309Q185.25 687.1215 185.39062 687.4028Q185.54688 687.684 185.8125 687.8403Q186.09375 687.9809 186.45312 687.9809Q186.8125 687.9809 187.07812 687.8403Q187.34375 687.684 187.48438 687.4028Q187.64062 687.1215 187.64062 686.7309ZM189.15625 682.9184Q189.15625 683.559 188.8125 684.059Q188.46875 684.559 187.84375 684.8403Q187.23438 685.1215 186.45312 685.1215Q185.65625 685.1215 185.04688 684.8403Q184.4375 684.559 184.07812 684.059Q183.73438 683.559 183.73438 682.9184Q183.73438 682.13715 184.07812 681.6059Q184.4375 681.07465 185.04688 680.809Q185.65625 680.5278 186.4375 680.5278Q187.23438 680.5278 187.84375 680.809Q188.45312 681.07465 188.79688 681.6059Q189.15625 682.13715 189.15625 682.9184ZM187.46875 682.9965Q187.46875 682.63715 187.34375 682.38715Q187.21875 682.13715 186.98438 681.9965Q186.76562 681.8403 186.4375 681.8403Q186.125 681.8403 185.89062 681.9809Q185.67188 682.1215 185.54688 682.38715Q185.4375 682.63715 185.4375 682.9965Q185.4375 683.3403 185.54688 683.6059Q185.67188 683.8559 185.89062 684.01215Q186.125 684.1528 186.45312 684.1528Q186.78125 684.1528 187.0 684.01215Q187.21875 683.8559 187.34375 683.6059Q187.46875 683.3403 187.46875 682.9965ZM192.3125 684.184L193.21875 684.184Q193.65625 684.184 193.9375 684.0434Q194.21875 683.88715 194.34375 683.6215Q194.48438 683.3403 194.48438 682.9809Q194.48438 682.6528 194.35938 682.4028Q194.23438 682.13715 193.96875 681.9965Q193.71875 681.8403 193.32812 681.8403Q193.01562 681.8403 192.75 681.9809Q192.48438 682.1059 192.32812 682.32465Q192.17188 682.5434 192.17188 682.8559L190.48438 682.8559Q190.48438 682.1528 190.85938 681.63715Q191.23438 681.1215 191.875 680.82465Q192.51562 680.5278 193.28125 680.5278Q194.15625 680.5278 194.79688 680.809Q195.45312 681.0903 195.8125 681.63715Q196.17188 682.1684 196.17188 682.9653Q196.17188 683.3715 195.98438 683.7465Q195.79688 684.1215 195.45312 684.434Q195.10938 684.7309 194.60938 684.9028Q194.10938 685.07465 193.48438 685.07465L192.3125 685.07465L192.3125 684.184ZM192.3125 685.4653L192.3125 684.5903L193.48438 684.5903Q194.1875 684.5903 194.70312 684.76215Q195.23438 684.9184 195.59375 685.2153Q195.95312 685.4965 196.125 685.9028Q196.3125 686.309 196.3125 686.7934Q196.3125 687.38715 196.07812 687.8559Q195.85938 688.32465 195.4375 688.6528Q195.03125 688.9653 194.48438 689.13715Q193.9375 689.309 193.28125 689.309Q192.75 689.309 192.21875 689.1528Q191.70312 688.9965 191.28125 688.69965Q190.875 688.4028 190.625 687.94965Q190.375 687.4809 190.375 686.8403L192.0625 686.8403Q192.0625 687.1684 192.21875 687.434Q192.39062 687.684 192.67188 687.8403Q192.96875 687.9809 193.32812 687.9809Q193.73438 687.9809 194.01562 687.8403Q194.3125 687.684 194.46875 687.4184Q194.625 687.13715 194.625 686.7778Q194.625 686.309 194.45312 686.0278Q194.28125 685.7309 193.96875 685.6059Q193.65625 685.4653 193.21875 685.4653L192.3125 685.4653Z" fill-rule="nonzero"/><path stroke="#6758f5" stroke-width="3.0" stroke-linejoin="round" stroke-linecap="round" d="M547.375 575.06476L547.375 575.971L544.0781 583.596L542.2969 583.596L545.59375 576.37726L541.3594 576.37726L541.3594 575.06476L547.375 575.06476ZM554.3281 578.5804L554.3281 580.04913Q554.3281 581.0179 554.125 581.721Q553.9219 582.4085 553.53125 582.846Q553.15625 583.2835 552.625 583.50226Q552.09375 583.721 551.4531 583.721Q550.9375 583.721 550.4844 583.596Q550.0469 583.4554 549.6875 583.17413Q549.34375 582.8929 549.0781 582.4554Q548.8281 582.0179 548.6875 581.42413Q548.5625 580.8304 548.5625 580.04913L548.5625 578.5804Q548.5625 577.61163 548.7656 576.92413Q548.96875 576.23663 549.34375 575.79913Q549.7344 575.36163 550.2656 575.1585Q550.7969 574.93976 551.4375 574.93976Q551.9531 574.93976 552.3906 575.0804Q552.84375 575.2054 553.2031 575.48663Q553.5625 575.7679 553.8125 576.2054Q554.0625 576.62726 554.1875 577.221Q554.3281 577.81476 554.3281 578.5804ZM552.6406 580.2835L552.6406 578.346Q552.6406 577.8929 552.5781 577.54913Q552.53125 577.18976 552.4375 576.9554Q552.34375 576.7054 552.1875 576.56476Q552.0469 576.4085 551.8594 576.346Q551.6719 576.2679 551.4375 576.2679Q551.15625 576.2679 550.9375 576.37726Q550.71875 576.48663 550.5625 576.73663Q550.40625 576.971 550.3281 577.37726Q550.25 577.7835 550.25 578.346L550.25 580.2835Q550.25 580.73663 550.2969 581.096Q550.34375 581.43976 550.4531 581.68976Q550.5625 581.93976 550.7031 582.096Q550.84375 582.25226 551.03125 582.3304Q551.21875 582.3929 551.4531 582.3929Q551.7344 582.3929 551.9531 582.2835Q552.1719 582.1585 552.3281 581.92413Q552.4844 581.67413 552.5625 581.2679Q552.6406 580.86163 552.6406 580.2835ZM561.4219 582.2835L561.4219 583.596L555.59375 583.596L555.59375 582.471L558.34375 579.5179Q558.7656 579.04913 559.0 578.7054Q559.25 578.346 559.34375 578.06476Q559.4531 577.7679 559.4531 577.5179Q559.4531 577.12726 559.3281 576.846Q559.2031 576.56476 558.9531 576.4085Q558.7031 576.25226 558.34375 576.25226Q557.9531 576.25226 557.6719 576.4554Q557.3906 576.6429 557.25 576.98663Q557.1094 577.31476 557.1094 577.73663L555.4219 577.73663Q555.4219 576.971 555.78125 576.3304Q556.1406 575.68976 556.7969 575.31476Q557.46875 574.93976 558.375 574.93976Q559.2656 574.93976 559.8906 575.23663Q560.5156 575.5179 560.8281 576.06476Q561.1406 576.61163 561.1406 577.36163Q561.1406 577.7835 561.0 578.18976Q560.875 578.5804 560.625 578.98663Q560.375 579.37726 560.0156 579.7835Q559.6719 580.17413 559.25 580.61163L557.7656 582.2835L561.4219 582.2835Z" fill-rule="nonzero"/><path fill="#ffffff" d="M547.375 575.06476L547.375 575.971L544.0781 583.596L542.2969 583.596L545.59375 576.37726L541.3594 576.37726L541.3594 575.06476L547.375 575.06476ZM554.3281 578.5804L554.3281 580.04913Q554.3281 581.0179 554.125 581.721Q553.9219 582.4085 553.53125 582.846Q553.15625 583.2835 552.625 583.50226Q552.09375 583.721 551.4531 583.721Q550.9375 583.721 550.4844 583.596Q550.0469 583.4554 549.6875 583.17413Q549.34375 582.8929 549.0781 582.4554Q548.8281 582.0179 548.6875 581.42413Q548.5625 580.8304 548.5625 580.04913L548.5625 578.5804Q548.5625 577.61163 548.7656 576.92413Q548.96875 576.23663 549.34375 575.79913Q549.7344 575.36163 550.2656 575.1585Q550.7969 574.93976 551.4375 574.93976Q551.9531 574.93976 552.3906 575.0804Q552.84375 575.2054 553.2031 575.48663Q553.5625 575.7679 553.8125 576.2054Q554.0625 576.62726 554.1875 577.221Q554.3281 577.81476 554.3281 578.5804ZM552.6406 580.2835L552.6406 578.346Q552.6406 577.8929 552.5781 577.54913Q552.53125 577.18976 552.4375 576.9554Q552.34375 576.7054 552.1875 576.56476Q552.0469 576.4085 551.8594 576.346Q551.6719 576.2679 551.4375 576.2679Q551.15625 576.2679 550.9375 576.37726Q550.71875 576.48663 550.5625 576.73663Q550.40625 576.971 550.3281 577.37726Q550.25 577.7835 550.25 578.346L550.25 580.2835Q550.25 580.73663 550.2969 581.096Q550.34375 581.43976 550.4531 581.68976Q550.5625 581.93976 550.7031 582.096Q550.84375 582.25226 551.03125 582.3304Q551.21875 582.3929 551.4531 582.3929Q551.7344 582.3929 551.9531 582.2835Q552.1719 582.1585 552.3281 581.92413Q552.4844 581.67413 552.5625 581.2679Q552.6406 580.86163 552.6406 580.2835ZM561.4219 582.2835L561.4219 583.596L555.59375 583.596L555.59375 582.471L558.34375 579.5179Q558.7656 579.04913 559.0 578.7054Q559.25 578.346 559.34375 578.06476Q559.4531 577.7679 559.4531 577.5179Q559.4531 577.12726 559.3281 576.846Q559.2031 576.56476 558.9531 576.4085Q558.7031 576.25226 558.34375 576.25226Q557.9531 576.25226 557.6719 576.4554Q557.3906 576.6429 557.25 576.98663Q557.1094 577.31476 557.1094 577.73663L555.4219 577.73663Q555.4219 576.971 555.78125 576.3304Q556.1406 575.68976 556.7969 575.31476Q557.46875 574.93976 558.375 574.93976Q559.2656 574.93976 559.8906 575.23663Q560.5156 575.5179 560.8281 576.06476Q561.1406 576.61163 561.1406 577.36163Q561.1406 577.7835 561.0 578.18976Q560.875 578.5804 560.625 578.98663Q560.375 579.37726 560.0156 579.7835Q559.6719 580.17413 559.25 580.61163L557.7656 582.2835L561.4219 582.2835Z" fill-rule="nonzero"/><path stroke="#6758f5" stroke-width="3.0" stroke-linejoin="round" stroke-linecap="round" d="M907.1875 429.89713L907.1875 438.444L905.5156 438.444L905.5156 431.83463L903.4844 432.49088L903.4844 431.14713L907.0156 429.89713L907.1875 429.89713ZM915.9219 437.1315L915.9219 438.444L910.09375 438.444L910.09375 437.319L912.84375 434.36588Q913.2656 433.89713 913.5 433.55338Q913.75 433.194 913.84375 432.91275Q913.9531 432.61588 913.9531 432.36588Q913.9531 431.97525 913.8281 431.694Q913.7031 431.41275 913.4531 431.2565Q913.2031 431.10025 912.84375 431.10025Q912.4531 431.10025 912.1719 431.30338Q911.8906 431.49088 911.75 431.83463Q911.6094 432.16275 911.6094 432.58463L909.9219 432.58463Q909.9219 431.819 910.28125 431.17838Q910.6406 430.53775 911.2969 430.16275Q911.96875 429.78775 912.875 429.78775Q913.7656 429.78775 914.3906 430.08463Q915.0156 430.36588 915.3281 430.91275Q915.6406 431.45963 915.6406 432.20963Q915.6406 432.6315 915.5 433.03775Q915.375 433.42838 915.125 433.83463Q914.875 434.22525 914.5156 434.6315Q914.1719 435.02213 913.75 435.45963L912.2656 437.1315L915.9219 437.1315ZM922.875 429.91275L922.875 430.819L919.5781 438.444L917.7969 438.444L921.09375 431.22525L916.8594 431.22525L916.8594 429.91275L922.875 429.91275ZM929.8281 436.10025Q929.8281 436.91275 929.4531 437.45963Q929.0781 438.0065 928.4219 438.28775Q927.78125 438.569 926.9531 438.569Q926.125 438.569 925.46875 438.28775Q924.8125 438.0065 924.4219 437.45963Q924.0469 436.91275 924.0469 436.10025Q924.0469 435.569 924.2656 435.1315Q924.4844 434.694 924.875 434.3815Q925.2656 434.069 925.78125 433.89713Q926.3125 433.72525 926.9375 433.72525Q927.7656 433.72525 928.4219 434.02213Q929.0781 434.319 929.4531 434.85025Q929.8281 435.3815 929.8281 436.10025ZM928.1406 435.99088Q928.1406 435.60025 927.9844 435.319Q927.84375 435.03775 927.5625 434.8815Q927.2969 434.72525 926.9375 434.72525Q926.5781 434.72525 926.3125 434.8815Q926.0469 435.03775 925.8906 435.319Q925.75 435.60025 925.75 435.99088Q925.75 436.3815 925.8906 436.66275Q926.0469 436.944 926.3125 437.10025Q926.59375 437.24088 926.9531 437.24088Q927.3125 437.24088 927.5781 437.10025Q927.84375 436.944 927.9844 436.66275Q928.1406 436.3815 928.1406 435.99088ZM929.65625 432.17838Q929.65625 432.819 929.3125 433.319Q928.96875 433.819 928.34375 434.10025Q927.7344 434.3815 926.9531 434.3815Q926.15625 434.3815 925.5469 434.10025Q924.9375 433.819 924.5781 433.319Q924.2344 432.819 924.2344 432.17838Q924.2344 431.39713 924.5781 430.86588Q924.9375 430.33463 925.5469 430.069Q926.15625 429.78775 926.9375 429.78775Q927.7344 429.78775 928.34375 430.069Q928.9531 430.33463 929.2969 430.86588Q929.65625 431.39713 929.65625 432.17838ZM927.96875 432.2565Q927.96875 431.89713 927.84375 431.64713Q927.71875 431.39713 927.4844 431.2565Q927.2656 431.10025 926.9375 431.10025Q926.625 431.10025 926.3906 431.24088Q926.1719 431.3815 926.0469 431.64713Q925.9375 431.89713 925.9375 432.2565Q925.9375 432.60025 926.0469 432.86588Q926.1719 433.11588 926.3906 433.27213Q926.625 433.41275 926.9531 433.41275Q927.28125 433.41275 927.5 433.27213Q927.71875 433.11588 927.84375 432.86588Q927.96875 432.60025 927.96875 432.2565Z" fill-rule="nonzero"/><path fill="#ffffff" d="M907.1875 429.89713L907.1875 438.444L905.5156 438.444L905.5156 431.83463L903.4844 432.49088L903.4844 431.14713L907.0156 429.89713L907.1875 429.89713ZM915.9219 437.1315L915.9219 438.444L910.09375 438.444L910.09375 437.319L912.84375 434.36588Q913.2656 433.89713 913.5 433.55338Q913.75 433.194 913.84375 432.91275Q913.9531 432.61588 913.9531 432.36588Q913.9531 431.97525 913.8281 431.694Q913.7031 431.41275 913.4531 431.2565Q913.2031 431.10025 912.84375 431.10025Q912.4531 431.10025 912.1719 431.30338Q911.8906 431.49088 911.75 431.83463Q911.6094 432.16275 911.6094 432.58463L909.9219 432.58463Q909.9219 431.819 910.28125 431.17838Q910.6406 430.53775 911.2969 430.16275Q911.96875 429.78775 912.875 429.78775Q913.7656 429.78775 914.3906 430.08463Q915.0156 430.36588 915.3281 430.91275Q915.6406 431.45963 915.6406 432.20963Q915.6406 432.6315 915.5 433.03775Q915.375 433.42838 915.125 433.83463Q914.875 434.22525 914.5156 434.6315Q914.1719 435.02213 913.75 435.45963L912.2656 437.1315L915.9219 437.1315ZM922.875 429.91275L922.875 430.819L919.5781 438.444L917.7969 438.444L921.09375 431.22525L916.8594 431.22525L916.8594 429.91275L922.875 429.91275ZM929.8281 436.10025Q929.8281 436.91275 929.4531 437.45963Q929.0781 438.0065 928.4219 438.28775Q927.78125 438.569 926.9531 438.569Q926.125 438.569 925.46875 438.28775Q924.8125 438.0065 924.4219 437.45963Q924.0469 436.91275 924.0469 436.10025Q924.0469 435.569 924.2656 435.1315Q924.4844 434.694 924.875 434.3815Q925.2656 434.069 925.78125 433.89713Q926.3125 433.72525 926.9375 433.72525Q927.7656 433.72525 928.4219 434.02213Q929.0781 434.319 929.4531 434.85025Q929.8281 435.3815 929.8281 436.10025ZM928.1406 435.99088Q928.1406 435.60025 927.9844 435.319Q927.84375 435.03775 927.5625 434.8815Q927.2969 434.72525 926.9375 434.72525Q926.5781 434.72525 926.3125 434.8815Q926.0469 435.03775 925.8906 435.319Q925.75 435.60025 925.75 435.99088Q925.75 436.3815 925.8906 436.66275Q926.0469 436.944 926.3125 437.10025Q926.59375 437.24088 926.9531 437.24088Q927.3125 437.24088 927.5781 437.10025Q927.84375 436.944 927.9844 436.66275Q928.1406 436.3815 928.1406 435.99088ZM929.65625 432.17838Q929.65625 432.819 929.3125 433.319Q928.96875 433.819 928.34375 434.10025Q927.7344 434.3815 926.9531 434.3815Q926.15625 434.3815 925.5469 434.10025Q924.9375 433.819 924.5781 433.319Q924.2344 432.819 924.2344 432.17838Q924.2344 431.39713 924.5781 430.86588Q924.9375 430.33463 925.5469 430.069Q926.15625 429.78775 926.9375 429.78775Q927.7344 429.78775 928.34375 430.069Q928.9531 430.33463 929.2969 430.86588Q929.65625 431.39713 929.65625 432.17838ZM927.96875 432.2565Q927.96875 431.89713 927.84375 431.64713Q927.71875 431.39713 927.4844 431.2565Q927.2656 431.10025 926.9375 431.10025Q926.625 431.10025 926.3906 431.24088Q926.1719 431.3815 926.0469 431.64713Q925.9375 431.89713 925.9375 432.2565Q925.9375 432.60025 926.0469 432.86588Q926.1719 433.11588 926.3906 433.27213Q926.625 433.41275 926.9531 433.41275Q927.28125 433.41275 927.5 433.27213Q927.71875 433.11588 927.84375 432.86588Q927.96875 432.60025 927.96875 432.2565Z" fill-rule="nonzero"/><path stroke="#fe4d7f" stroke-width="3.0" stroke-linejoin="round" stroke-linecap="round" d="M297.17188 617.7574L295.82812 617.4449L296.3125 613.11676L301.10938 613.11676L301.10938 614.47614L297.70312 614.47614L297.48438 616.36676Q297.65625 616.273 298.0 616.16364Q298.35938 616.03864 298.78125 616.03864Q299.40625 616.03864 299.875 616.24176Q300.35938 616.42926 300.6875 616.80426Q301.03125 617.16364 301.20312 617.7105Q301.39062 618.24176 301.39062 618.91364Q301.39062 619.47614 301.20312 619.99176Q301.03125 620.5074 300.67188 620.91364Q300.32812 621.30426 299.78125 621.53864Q299.25 621.773 298.5 621.773Q297.95312 621.773 297.4375 621.60114Q296.92188 621.42926 296.51562 621.11676Q296.10938 620.78864 295.85938 620.3355Q295.625 619.86676 295.60938 619.273L297.29688 619.273Q297.32812 619.648 297.48438 619.91364Q297.64062 620.16364 297.89062 620.30426Q298.15625 620.4449 298.5 620.4449Q298.82812 620.4449 299.04688 620.3199Q299.28125 620.1949 299.42188 619.97614Q299.5625 619.7574 299.625 619.4605Q299.6875 619.16364 299.6875 618.8199Q299.6875 618.47614 299.60938 618.1949Q299.53125 617.91364 299.35938 617.7105Q299.1875 617.5074 298.92188 617.398Q298.67188 617.28864 298.32812 617.28864Q297.85938 617.28864 297.59375 617.42926Q297.34375 617.5699 297.17188 617.7574ZM304.17188 617.7574L302.82812 617.4449L303.3125 613.11676L308.10938 613.11676L308.10938 614.47614L304.70312 614.47614L304.48438 616.36676Q304.65625 616.273 305.0 616.16364Q305.35938 616.03864 305.78125 616.03864Q306.40625 616.03864 306.875 616.24176Q307.35938 616.42926 307.6875 616.80426Q308.03125 617.16364 308.20312 617.7105Q308.39062 618.24176 308.39062 618.91364Q308.39062 619.47614 308.20312 619.99176Q308.03125 620.5074 307.67188 620.91364Q307.32812 621.30426 306.78125 621.53864Q306.25 621.773 305.5 621.773Q304.95312 621.773 304.4375 621.60114Q303.92188 621.42926 303.51562 621.11676Q303.10938 620.78864 302.85938 620.3355Q302.625 619.86676 302.60938 619.273L304.29688 619.273Q304.32812 619.648 304.48438 619.91364Q304.64062 620.16364 304.89062 620.30426Q305.15625 620.4449 305.5 620.4449Q305.82812 620.4449 306.04688 620.3199Q306.28125 620.1949 306.42188 619.97614Q306.5625 619.7574 306.625 619.4605Q306.6875 619.16364 306.6875 618.8199Q306.6875 618.47614 306.60938 618.1949Q306.53125 617.91364 306.35938 617.7105Q306.1875 617.5074 305.92188 617.398Q305.67188 617.28864 305.32812 617.28864Q304.85938 617.28864 304.59375 617.42926Q304.34375 617.5699 304.17188 617.7574ZM313.6875 613.10114L313.6875 621.648L312.01562 621.648L312.01562 615.03864L309.98438 615.6949L309.98438 614.35114L313.51562 613.10114L313.6875 613.10114Z" fill-rule="nonzero"/><path fill="#ffffff" d="M297.17188 617.7574L295.82812 617.4449L296.3125 613.11676L301.10938 613.11676L301.10938 614.47614L297.70312 614.47614L297.48438 616.36676Q297.65625 616.273 298.0 616.16364Q298.35938 616.03864 298.78125 616.03864Q299.40625 616.03864 299.875 616.24176Q300.35938 616.42926 300.6875 616.80426Q301.03125 617.16364 301.20312 617.7105Q301.39062 618.24176 301.39062 618.91364Q301.39062 619.47614 301.20312 619.99176Q301.03125 620.5074 300.67188 620.91364Q300.32812 621.30426 299.78125 621.53864Q299.25 621.773 298.5 621.773Q297.95312 621.773 297.4375 621.60114Q296.92188 621.42926 296.51562 621.11676Q296.10938 620.78864 295.85938 620.3355Q295.625 619.86676 295.60938 619.273L297.29688 619.273Q297.32812 619.648 297.48438 619.91364Q297.64062 620.16364 297.89062 620.30426Q298.15625 620.4449 298.5 620.4449Q298.82812 620.4449 299.04688 620.3199Q299.28125 620.1949 299.42188 619.97614Q299.5625 619.7574 299.625 619.4605Q299.6875 619.16364 299.6875 618.8199Q299.6875 618.47614 299.60938 618.1949Q299.53125 617.91364 299.35938 617.7105Q299.1875 617.5074 298.92188 617.398Q298.67188 617.28864 298.32812 617.28864Q297.85938 617.28864 297.59375 617.42926Q297.34375 617.5699 297.17188 617.7574ZM304.17188 617.7574L302.82812 617.4449L303.3125 613.11676L308.10938 613.11676L308.10938 614.47614L304.70312 614.47614L304.48438 616.36676Q304.65625 616.273 305.0 616.16364Q305.35938 616.03864 305.78125 616.03864Q306.40625 616.03864 306.875 616.24176Q307.35938 616.42926 307.6875 616.80426Q308.03125 617.16364 308.20312 617.7105Q308.39062 618.24176 308.39062 618.91364Q308.39062 619.47614 308.20312 619.99176Q308.03125 620.5074 307.67188 620.91364Q307.32812 621.30426 306.78125 621.53864Q306.25 621.773 305.5 621.773Q304.95312 621.773 304.4375 621.60114Q303.92188 621.42926 303.51562 621.11676Q303.10938 620.78864 302.85938 620.3355Q302.625 619.86676 302.60938 619.273L304.29688 619.273Q304.32812 619.648 304.48438 619.91364Q304.64062 620.16364 304.89062 620.30426Q305.15625 620.4449 305.5 620.4449Q305.82812 620.4449 306.04688 620.3199Q306.28125 620.1949 306.42188 619.97614Q306.5625 619.7574 306.625 619.4605Q306.6875 619.16364 306.6875 618.8199Q306.6875 618.47614 306.60938 618.1949Q306.53125 617.91364 306.35938 617.7105Q306.1875 617.5074 305.92188 617.398Q305.67188 617.28864 305.32812 617.28864Q304.85938 617.28864 304.59375 617.42926Q304.34375 617.5699 304.17188 617.7574ZM313.6875 613.10114L313.6875 621.648L312.01562 621.648L312.01562 615.03864L309.98438 615.6949L309.98438 614.35114L313.51562 613.10114L313.6875 613.10114Z" fill-rule="nonzero"/><path stroke="#fe4d7f" stroke-width="3.0" stroke-linejoin="round" stroke-linecap="round" d="M666.5625 652.4805L666.5625 653.80865L660.4219 653.80865L660.3281 652.7774L663.8906 647.1368L665.2344 647.1368L663.78125 649.5743L662.0156 652.4805L666.5625 652.4805ZM665.59375 647.1368L665.59375 655.668L663.90625 655.668L663.90625 647.1368L665.59375 647.1368ZM671.6875 647.12115L671.6875 655.668L670.0156 655.668L670.0156 649.05865L667.9844 649.7149L667.9844 648.37115L671.5156 647.12115L671.6875 647.12115ZM678.9375 647.043L679.1875 647.043L679.1875 648.4024L679.09375 648.4024Q678.4219 648.4024 677.8906 648.6055Q677.375 648.793 677.0156 649.168Q676.65625 649.5274 676.46875 650.043Q676.28125 650.55865 676.28125 651.1993L676.28125 652.62115Q676.28125 653.0743 676.3594 653.418Q676.4531 653.7618 676.625 653.99615Q676.7969 654.2305 677.03125 654.3555Q677.2656 654.4649 677.5625 654.4649Q677.84375 654.4649 678.0625 654.3555Q678.2969 654.2305 678.4531 654.0118Q678.6094 653.793 678.6875 653.5118Q678.78125 653.2149 678.78125 652.87115Q678.78125 652.5274 678.6875 652.2305Q678.6094 651.93365 678.4375 651.7305Q678.28125 651.5118 678.0469 651.4024Q677.8125 651.2774 677.5156 651.2774Q677.125 651.2774 676.8125 651.4649Q676.5156 651.6524 676.34375 651.93365Q676.1875 652.2149 676.1719 652.543L675.65625 652.2149Q675.6719 651.7618 675.84375 651.3555Q676.0156 650.9493 676.3281 650.6368Q676.6406 650.3243 677.0625 650.1524Q677.5 649.9649 678.0469 649.9649Q678.6406 649.9649 679.09375 650.1993Q679.5625 650.418 679.8594 650.8243Q680.1719 651.2149 680.3125 651.74615Q680.46875 652.2618 680.46875 652.8555Q680.46875 653.4805 680.2656 654.0118Q680.0625 654.543 679.6875 654.9493Q679.3125 655.3399 678.78125 655.5743Q678.25 655.793 677.59375 655.793Q676.9219 655.793 676.3594 655.543Q675.8125 655.293 675.40625 654.8399Q675.0156 654.3868 674.7969 653.7618Q674.59375 653.1368 674.59375 652.4024L674.59375 651.74615Q674.59375 650.7149 674.8906 649.8555Q675.1875 648.99615 675.75 648.37115Q676.3281 647.74615 677.125 647.4024Q677.9375 647.043 678.9375 647.043Z" fill-rule="nonzero"/><path fill="#ffffff" d="M666.5625 652.4805L666.5625 653.80865L660.4219 653.80865L660.3281 652.7774L663.8906 647.1368L665.2344 647.1368L663.78125 649.5743L662.0156 652.4805L666.5625 652.4805ZM665.59375 647.1368L665.59375 655.668L663.90625 655.668L663.90625 647.1368L665.59375 647.1368ZM671.6875 647.12115L671.6875 655.668L670.0156 655.668L670.0156 649.05865L667.9844 649.7149L667.9844 648.37115L671.5156 647.12115L671.6875 647.12115ZM678.9375 647.043L679.1875 647.043L679.1875 648.4024L679.09375 648.4024Q678.4219 648.4024 677.8906 648.6055Q677.375 648.793 677.0156 649.168Q676.65625 649.5274 676.46875 650.043Q676.28125 650.55865 676.28125 651.1993L676.28125 652.62115Q676.28125 653.0743 676.3594 653.418Q676.4531 653.7618 676.625 653.99615Q676.7969 654.2305 677.03125 654.3555Q677.2656 654.4649 677.5625 654.4649Q677.84375 654.4649 678.0625 654.3555Q678.2969 654.2305 678.4531 654.0118Q678.6094 653.793 678.6875 653.5118Q678.78125 653.2149 678.78125 652.87115Q678.78125 652.5274 678.6875 652.2305Q678.6094 651.93365 678.4375 651.7305Q678.28125 651.5118 678.0469 651.4024Q677.8125 651.2774 677.5156 651.2774Q677.125 651.2774 676.8125 651.4649Q676.5156 651.6524 676.34375 651.93365Q676.1875 652.2149 676.1719 652.543L675.65625 652.2149Q675.6719 651.7618 675.84375 651.3555Q676.0156 650.9493 676.3281 650.6368Q676.6406 650.3243 677.0625 650.1524Q677.5 649.9649 678.0469 649.9649Q678.6406 649.9649 679.09375 650.1993Q679.5625 650.418 679.8594 650.8243Q680.1719 651.2149 680.3125 651.74615Q680.46875 652.2618 680.46875 652.8555Q680.46875 653.4805 680.2656 654.0118Q680.0625 654.543 679.6875 654.9493Q679.3125 655.3399 678.78125 655.5743Q678.25 655.793 677.59375 655.793Q676.9219 655.793 676.3594 655.543Q675.8125 655.293 675.40625 654.8399Q675.0156 654.3868 674.7969 653.7618Q674.59375 653.1368 674.59375 652.4024L674.59375 651.74615Q674.59375 650.7149 674.8906 649.8555Q675.1875 648.99615 675.75 648.37115Q676.3281 647.74615 677.125 647.4024Q677.9375 647.043 678.9375 647.043Z" fill-rule="nonzero"/><path stroke="#fe4d7f" stroke-width="3.0" stroke-linejoin="round" stroke-linecap="round" d="M1031.3281 539.92426Q1031.3281 540.73676 1030.9531 541.2836Q1030.5781 541.8305 1029.9219 542.11176Q1029.2812 542.393 1028.4531 542.393Q1027.625 542.393 1026.9688 542.11176Q1026.3125 541.8305 1025.9219 541.2836Q1025.5469 540.73676 1025.5469 539.92426Q1025.5469 539.393 1025.7656 538.9555Q1025.9844 538.518 1026.375 538.2055Q1026.7656 537.893 1027.2812 537.7211Q1027.8125 537.54926 1028.4375 537.54926Q1029.2656 537.54926 1029.9219 537.8461Q1030.5781 538.143 1030.9531 538.67426Q1031.3281 539.2055 1031.3281 539.92426ZM1029.6406 539.8149Q1029.6406 539.42426 1029.4844 539.143Q1029.3438 538.86176 1029.0625 538.7055Q1028.7969 538.54926 1028.4375 538.54926Q1028.0781 538.54926 1027.8125 538.7055Q1027.5469 538.86176 1027.3906 539.143Q1027.25 539.42426 1027.25 539.8149Q1027.25 540.2055 1027.3906 540.48676Q1027.5469 540.768 1027.8125 540.92426Q1028.0938 541.0649 1028.4531 541.0649Q1028.8125 541.0649 1029.0781 540.92426Q1029.3438 540.768 1029.4844 540.48676Q1029.6406 540.2055 1029.6406 539.8149ZM1031.1562 536.0024Q1031.1562 536.643 1030.8125 537.143Q1030.4688 537.643 1029.8438 537.92426Q1029.2344 538.2055 1028.4531 538.2055Q1027.6562 538.2055 1027.0469 537.92426Q1026.4375 537.643 1026.0781 537.143Q1025.7344 536.643 1025.7344 536.0024Q1025.7344 535.2211 1026.0781 534.6899Q1026.4375 534.1586 1027.0469 533.893Q1027.6562 533.61176 1028.4375 533.61176Q1029.2344 533.61176 1029.8438 533.893Q1030.4531 534.1586 1030.7969 534.6899Q1031.1562 535.2211 1031.1562 536.0024ZM1029.4688 536.0805Q1029.4688 535.7211 1029.3438 535.4711Q1029.2188 535.2211 1028.9844 535.0805Q1028.7656 534.92426 1028.4375 534.92426Q1028.125 534.92426 1027.8906 535.0649Q1027.6719 535.2055 1027.5469 535.4711Q1027.4375 535.7211 1027.4375 536.0805Q1027.4375 536.42426 1027.5469 536.6899Q1027.6719 536.9399 1027.8906 537.0961Q1028.125 537.23676 1028.4531 537.23676Q1028.7812 537.23676 1029.0 537.0961Q1029.2188 536.9399 1029.3438 536.6899Q1029.4688 536.42426 1029.4688 536.0805ZM1036.9375 533.643L1037.1875 533.643L1037.1875 535.0024L1037.0938 535.0024Q1036.4219 535.0024 1035.8906 535.2055Q1035.375 535.393 1035.0156 535.768Q1034.6562 536.1274 1034.4688 536.643Q1034.2812 537.1586 1034.2812 537.79926L1034.2812 539.2211Q1034.2812 539.67426 1034.3594 540.018Q1034.4531 540.36176 1034.625 540.5961Q1034.7969 540.8305 1035.0312 540.9555Q1035.2656 541.0649 1035.5625 541.0649Q1035.8438 541.0649 1036.0625 540.9555Q1036.2969 540.8305 1036.4531 540.61176Q1036.6094 540.393 1036.6875 540.11176Q1036.7812 539.8149 1036.7812 539.4711Q1036.7812 539.1274 1036.6875 538.8305Q1036.6094 538.5336 1036.4375 538.3305Q1036.2812 538.11176 1036.0469 538.0024Q1035.8125 537.8774 1035.5156 537.8774Q1035.125 537.8774 1034.8125 538.0649Q1034.5156 538.2524 1034.3438 538.5336Q1034.1875 538.8149 1034.1719 539.143L1033.6562 538.8149Q1033.6719 538.36176 1033.8438 537.9555Q1034.0156 537.54926 1034.3281 537.23676Q1034.6406 536.92426 1035.0625 536.7524Q1035.5 536.5649 1036.0469 536.5649Q1036.6406 536.5649 1037.0938 536.79926Q1037.5625 537.018 1037.8594 537.42426Q1038.1719 537.8149 1038.3125 538.3461Q1038.4688 538.86176 1038.4688 539.4555Q1038.4688 540.0805 1038.2656 540.61176Q1038.0625 541.143 1037.6875 541.54926Q1037.3125 541.9399 1036.7812 542.17426Q1036.25 542.393 1035.5938 542.393Q1034.9219 542.393 1034.3594 542.143Q1033.8125 541.893 1033.4062 541.4399Q1033.0156 540.98676 1032.7969 540.36176Q1032.5938 539.73676 1032.5938 539.0024L1032.5938 538.3461Q1032.5938 537.3149 1032.8906 536.4555Q1033.1875 535.5961 1033.75 534.9711Q1034.3281 534.3461 1035.125 534.0024Q1035.9375 533.643 1036.9375 533.643ZM1043.9375 533.643L1044.1875 533.643L1044.1875 535.0024L1044.0938 535.0024Q1043.4219 535.0024 1042.8906 535.2055Q1042.375 535.393 1042.0156 535.768Q1041.6562 536.1274 1041.4688 536.643Q1041.2812 537.1586 1041.2812 537.79926L1041.2812 539.2211Q1041.2812 539.67426 1041.3594 540.018Q1041.4531 540.36176 1041.625 540.5961Q1041.7969 540.8305 1042.0312 540.9555Q1042.2656 541.0649 1042.5625 541.0649Q1042.8438 541.0649 1043.0625 540.9555Q1043.2969 540.8305 1043.4531 540.61176Q1043.6094 540.393 1043.6875 540.11176Q1043.7812 539.8149 1043.7812 539.4711Q1043.7812 539.1274 1043.6875 538.8305Q1043.6094 538.5336 1043.4375 538.3305Q1043.2812 538.11176 1043.0469 538.0024Q1042.8125 537.8774 1042.5156 537.8774Q1042.125 537.8774 1041.8125 538.0649Q1041.5156 538.2524 1041.3438 538.5336Q1041.1875 538.8149 1041.1719 539.143L1040.6562 538.8149Q1040.6719 538.36176 1040.8438 537.9555Q1041.0156 537.54926 1041.3281 537.23676Q1041.6406 536.92426 1042.0625 536.7524Q1042.5 536.5649 1043.0469 536.5649Q1043.6406 536.5649 1044.0938 536.79926Q1044.5625 537.018 1044.8594 537.42426Q1045.1719 537.8149 1045.3125 538.3461Q1045.4688 538.86176 1045.4688 539.4555Q1045.4688 540.0805 1045.2656 540.61176Q1045.0625 541.143 1044.6875 541.54926Q1044.3125 541.9399 1043.7812 542.17426Q1043.25 542.393 1042.5938 542.393Q1041.9219 542.393 1041.3594 542.143Q1040.8125 541.893 1040.4062 541.4399Q1040.0156 540.98676 1039.7969 540.36176Q1039.5938 539.73676 1039.5938 539.0024L1039.5938 538.3461Q1039.5938 537.3149 1039.8906 536.4555Q1040.1875 535.5961 1040.75 534.9711Q1041.3281 534.3461 1042.125 534.0024Q1042.9375 533.643 1043.9375 533.643Z" fill-rule="nonzero"/><path fill="#ffffff" d="M1031.3281 539.92426Q1031.3281 540.73676 1030.9531 541.2836Q1030.5781 541.8305 1029.9219 542.11176Q1029.2812 542.393 1028.4531 542.393Q1027.625 542.393 1026.9688 542.11176Q1026.3125 541.8305 1025.9219 541.2836Q1025.5469 540.73676 1025.5469 539.92426Q1025.5469 539.393 1025.7656 538.9555Q1025.9844 538.518 1026.375 538.2055Q1026.7656 537.893 1027.2812 537.7211Q1027.8125 537.54926 1028.4375 537.54926Q1029.2656 537.54926 1029.9219 537.8461Q1030.5781 538.143 1030.9531 538.67426Q1031.3281 539.2055 1031.3281 539.92426ZM1029.6406 539.8149Q1029.6406 539.42426 1029.4844 539.143Q1029.3438 538.86176 1029.0625 538.7055Q1028.7969 538.54926 1028.4375 538.54926Q1028.0781 538.54926 1027.8125 538.7055Q1027.5469 538.86176 1027.3906 539.143Q1027.25 539.42426 1027.25 539.8149Q1027.25 540.2055 1027.3906 540.48676Q1027.5469 540.768 1027.8125 540.92426Q1028.0938 541.0649 1028.4531 541.0649Q1028.8125 541.0649 1029.0781 540.92426Q1029.3438 540.768 1029.4844 540.48676Q1029.6406 540.2055 1029.6406 539.8149ZM1031.1562 536.0024Q1031.1562 536.643 1030.8125 537.143Q1030.4688 537.643 1029.8438 537.92426Q1029.2344 538.2055 1028.4531 538.2055Q1027.6562 538.2055 1027.0469 537.92426Q1026.4375 537.643 1026.0781 537.143Q1025.7344 536.643 1025.7344 536.0024Q1025.7344 535.2211 1026.0781 534.6899Q1026.4375 534.1586 1027.0469 533.893Q1027.6562 533.61176 1028.4375 533.61176Q1029.2344 533.61176 1029.8438 533.893Q1030.4531 534.1586 1030.7969 534.6899Q1031.1562 535.2211 1031.1562 536.0024ZM1029.4688 536.0805Q1029.4688 535.7211 1029.3438 535.4711Q1029.2188 535.2211 1028.9844 535.0805Q1028.7656 534.92426 1028.4375 534.92426Q1028.125 534.92426 1027.8906 535.0649Q1027.6719 535.2055 1027.5469 535.4711Q1027.4375 535.7211 1027.4375 536.0805Q1027.4375 536.42426 1027.5469 536.6899Q1027.6719 536.9399 1027.8906 537.0961Q1028.125 537.23676 1028.4531 537.23676Q1028.7812 537.23676 1029.0 537.0961Q1029.2188 536.9399 1029.3438 536.6899Q1029.4688 536.42426 1029.4688 536.0805ZM1036.9375 533.643L1037.1875 533.643L1037.1875 535.0024L1037.0938 535.0024Q1036.4219 535.0024 1035.8906 535.2055Q1035.375 535.393 1035.0156 535.768Q1034.6562 536.1274 1034.4688 536.643Q1034.2812 537.1586 1034.2812 537.79926L1034.2812 539.2211Q1034.2812 539.67426 1034.3594 540.018Q1034.4531 540.36176 1034.625 540.5961Q1034.7969 540.8305 1035.0312 540.9555Q1035.2656 541.0649 1035.5625 541.0649Q1035.8438 541.0649 1036.0625 540.9555Q1036.2969 540.8305 1036.4531 540.61176Q1036.6094 540.393 1036.6875 540.11176Q1036.7812 539.8149 1036.7812 539.4711Q1036.7812 539.1274 1036.6875 538.8305Q1036.6094 538.5336 1036.4375 538.3305Q1036.2812 538.11176 1036.0469 538.0024Q1035.8125 537.8774 1035.5156 537.8774Q1035.125 537.8774 1034.8125 538.0649Q1034.5156 538.2524 1034.3438 538.5336Q1034.1875 538.8149 1034.1719 539.143L1033.6562 538.8149Q1033.6719 538.36176 1033.8438 537.9555Q1034.0156 537.54926 1034.3281 537.23676Q1034.6406 536.92426 1035.0625 536.7524Q1035.5 536.5649 1036.0469 536.5649Q1036.6406 536.5649 1037.0938 536.79926Q1037.5625 537.018 1037.8594 537.42426Q1038.1719 537.8149 1038.3125 538.3461Q1038.4688 538.86176 1038.4688 539.4555Q1038.4688 540.0805 1038.2656 540.61176Q1038.0625 541.143 1037.6875 541.54926Q1037.3125 541.9399 1036.7812 542.17426Q1036.25 542.393 1035.5938 542.393Q1034.9219 542.393 1034.3594 542.143Q1033.8125 541.893 1033.4062 541.4399Q1033.0156 540.98676 1032.7969 540.36176Q1032.5938 539.73676 1032.5938 539.0024L1032.5938 538.3461Q1032.5938 537.3149 1032.8906 536.4555Q1033.1875 535.5961 1033.75 534.9711Q1034.3281 534.3461 1035.125 534.0024Q1035.9375 533.643 1036.9375 533.643ZM1043.9375 533.643L1044.1875 533.643L1044.1875 535.0024L1044.0938 535.0024Q1043.4219 535.0024 1042.8906 535.2055Q1042.375 535.393 1042.0156 535.768Q1041.6562 536.1274 1041.4688 536.643Q1041.2812 537.1586 1041.2812 537.79926L1041.2812 539.2211Q1041.2812 539.67426 1041.3594 540.018Q1041.4531 540.36176 1041.625 540.5961Q1041.7969 540.8305 1042.0312 540.9555Q1042.2656 541.0649 1042.5625 541.0649Q1042.8438 541.0649 1043.0625 540.9555Q1043.2969 540.8305 1043.4531 540.61176Q1043.6094 540.393 1043.6875 540.11176Q1043.7812 539.8149 1043.7812 539.4711Q1043.7812 539.1274 1043.6875 538.8305Q1043.6094 538.5336 1043.4375 538.3305Q1043.2812 538.11176 1043.0469 538.0024Q1042.8125 537.8774 1042.5156 537.8774Q1042.125 537.8774 1041.8125 538.0649Q1041.5156 538.2524 1041.3438 538.5336Q1041.1875 538.8149 1041.1719 539.143L1040.6562 538.8149Q1040.6719 538.36176 1040.8438 537.9555Q1041.0156 537.54926 1041.3281 537.23676Q1041.6406 536.92426 1042.0625 536.7524Q1042.5 536.5649 1043.0469 536.5649Q1043.6406 536.5649 1044.0938 536.79926Q1044.5625 537.018 1044.8594 537.42426Q1045.1719 537.8149 1045.3125 538.3461Q1045.4688 538.86176 1045.4688 539.4555Q1045.4688 540.0805 1045.2656 540.61176Q1045.0625 541.143 1044.6875 541.54926Q1044.3125 541.9399 1043.7812 542.17426Q1043.25 542.393 1042.5938 542.393Q1041.9219 542.393 1041.3594 542.143Q1040.8125 541.893 1040.4062 541.4399Q1040.0156 540.98676 1039.7969 540.36176Q1039.5938 539.73676 1039.5938 539.0024L1039.5938 538.3461Q1039.5938 537.3149 1039.8906 536.4555Q1040.1875 535.5961 1040.75 534.9711Q1041.3281 534.3461 1042.125 534.0024Q1042.9375 533.643 1043.9375 533.643Z" fill-rule="nonzero"/><path stroke="#ffffff" stroke-width="3.0" stroke-linejoin="round" stroke-linecap="round" d="M6.5 514.75L7.609375 514.65625Q7.734375 515.46875 8.171875 515.875Q8.625 516.28125 9.265625 516.28125Q10.015625 516.28125 10.546875 515.7031Q11.078125 515.125 11.078125 514.1875Q11.078125 513.28125 10.5625 512.7656Q10.0625 512.2344 9.234375 512.2344Q8.734375 512.2344 8.3125 512.46875Q7.90625 512.7031 7.671875 513.0625L6.6875 512.9375L7.515625 508.53125L11.796875 508.53125L11.796875 509.53125L8.359375 509.53125L7.90625 511.84375Q8.671875 511.29688 9.515625 511.29688Q10.640625 511.29688 11.40625 512.0781Q12.1875 512.8594 12.1875 514.09375Q12.1875 515.25 11.515625 516.1094Q10.6875 517.1406 9.265625 517.1406Q8.09375 517.1406 7.34375 516.4844Q6.609375 515.8281 6.5 514.75ZM13.5 512.7656Q13.5 511.23438 13.8125 510.3125Q14.125 509.375 14.734375 508.875Q15.359375 508.375 16.296875 508.375Q16.984375 508.375 17.5 508.65625Q18.03125 508.9375 18.375 509.46875Q18.71875 509.98438 18.90625 510.73438Q19.09375 511.48438 19.09375 512.7656Q19.09375 514.28125 18.78125 515.2031Q18.484375 516.125 17.859375 516.6406Q17.25 517.1406 16.296875 517.1406Q15.0625 517.1406 14.34375 516.25Q13.5 515.1875 13.5 512.7656ZM14.578125 512.7656Q14.578125 514.875 15.078125 515.5781Q15.578125 516.28125 16.296875 516.28125Q17.03125 516.28125 17.515625 515.5781Q18.015625 514.875 18.015625 512.7656Q18.015625 510.64062 17.515625 509.95312Q17.03125 509.25 16.28125 509.25Q15.5625 509.25 15.125 509.85938Q14.578125 510.64062 14.578125 512.7656ZM20.5 512.7656Q20.5 511.23438 20.8125 510.3125Q21.125 509.375 21.734375 508.875Q22.359375 508.375 23.296875 508.375Q23.984375 508.375 24.5 508.65625Q25.03125 508.9375 25.375 509.46875Q25.71875 509.98438 25.90625 510.73438Q26.09375 511.48438 26.09375 512.7656Q26.09375 514.28125 25.78125 515.2031Q25.484375 516.125 24.859375 516.6406Q24.25 517.1406 23.296875 517.1406Q22.0625 517.1406 21.34375 516.25Q20.5 515.1875 20.5 512.7656ZM21.578125 512.7656Q21.578125 514.875 22.078125 515.5781Q22.578125 516.28125 23.296875 516.28125Q24.03125 516.28125 24.515625 515.5781Q25.015625 514.875 25.015625 512.7656Q25.015625 510.64062 24.515625 509.95312Q24.03125 509.25 23.28125 509.25Q22.5625 509.25 22.125 509.85938Q21.578125 510.64062 21.578125 512.7656Z" fill-rule="nonzero"/><path fill="#000000" d="M6.5 514.75L7.609375 514.65625Q7.734375 515.46875 8.171875 515.875Q8.625 516.28125 9.265625 516.28125Q10.015625 516.28125 10.546875 515.7031Q11.078125 515.125 11.078125 514.1875Q11.078125 513.28125 10.5625 512.7656Q10.0625 512.2344 9.234375 512.2344Q8.734375 512.2344 8.3125 512.46875Q7.90625 512.7031 7.671875 513.0625L6.6875 512.9375L7.515625 508.53125L11.796875 508.53125L11.796875 509.53125L8.359375 509.53125L7.90625 511.84375Q8.671875 511.29688 9.515625 511.29688Q10.640625 511.29688 11.40625 512.0781Q12.1875 512.8594 12.1875 514.09375Q12.1875 515.25 11.515625 516.1094Q10.6875 517.1406 9.265625 517.1406Q8.09375 517.1406 7.34375 516.4844Q6.609375 515.8281 6.5 514.75ZM13.5 512.7656Q13.5 511.23438 13.8125 510.3125Q14.125 509.375 14.734375 508.875Q15.359375 508.375 16.296875 508.375Q16.984375 508.375 17.5 508.65625Q18.03125 508.9375 18.375 509.46875Q18.71875 509.98438 18.90625 510.73438Q19.09375 511.48438 19.09375 512.7656Q19.09375 514.28125 18.78125 515.2031Q18.484375 516.125 17.859375 516.6406Q17.25 517.1406 16.296875 517.1406Q15.0625 517.1406 14.34375 516.25Q13.5 515.1875 13.5 512.7656ZM14.578125 512.7656Q14.578125 514.875 15.078125 515.5781Q15.578125 516.28125 16.296875 516.28125Q17.03125 516.28125 17.515625 515.5781Q18.015625 514.875 18.015625 512.7656Q18.015625 510.64062 17.515625 509.95312Q17.03125 509.25 16.28125 509.25Q15.5625 509.25 15.125 509.85938Q14.578125 510.64062 14.578125 512.7656ZM20.5 512.7656Q20.5 511.23438 20.8125 510.3125Q21.125 509.375 21.734375 508.875Q22.359375 508.375 23.296875 508.375Q23.984375 508.375 24.5 508.65625Q25.03125 508.9375 25.375 509.46875Q25.71875 509.98438 25.90625 510.73438Q26.09375 511.48438 26.09375 512.7656Q26.09375 514.28125 25.78125 515.2031Q25.484375 516.125 24.859375 516.6406Q24.25 517.1406 23.296875 517.1406Q22.0625 517.1406 21.34375 516.25Q20.5 515.1875 20.5 512.7656ZM21.578125 512.7656Q21.578125 514.875 22.078125 515.5781Q22.578125 516.28125 23.296875 516.28125Q24.03125 516.28125 24.515625 515.5781Q25.015625 514.875 25.015625 512.7656Q25.015625 510.64062 24.515625 509.95312Q24.03125 509.25 23.28125 509.25Q22.5625 509.25 22.125 509.85938Q21.578125 510.64062 21.578125 512.7656Z" fill-rule="nonzero"/><path stroke="#ffffff" stroke-width="3.0" stroke-linejoin="round" stroke-linecap="round" d="M10.46875 265.0L9.421875 265.0L9.421875 258.28125Q9.03125 258.64062 8.40625 259.01562Q7.796875 259.375 7.3125 259.54688L7.3125 258.53125Q8.1875 258.10938 8.84375 257.53125Q9.515625 256.9375 9.796875 256.375L10.46875 256.375L10.46875 265.0ZM13.5 260.76562Q13.5 259.23438 13.8125 258.3125Q14.125 257.375 14.734375 256.875Q15.359375 256.375 16.296875 256.375Q16.984375 256.375 17.5 256.65625Q18.03125 256.9375 18.375 257.46875Q18.71875 257.98438 18.90625 258.73438Q19.09375 259.48438 19.09375 260.76562Q19.09375 262.28125 18.78125 263.20312Q18.484375 264.125 17.859375 264.64062Q17.25 265.14062 16.296875 265.14062Q15.0625 265.14062 14.34375 264.25Q13.5 263.1875 13.5 260.76562ZM14.578125 260.76562Q14.578125 262.875 15.078125 263.57812Q15.578125 264.28125 16.296875 264.28125Q17.03125 264.28125 17.515625 263.57812Q18.015625 262.875 18.015625 260.76562Q18.015625 258.64062 17.515625 257.95312Q17.03125 257.25 16.28125 257.25Q15.5625 257.25 15.125 257.85938Q14.578125 258.64062 14.578125 260.76562ZM20.5 260.76562Q20.5 259.23438 20.8125 258.3125Q21.125 257.375 21.734375 256.875Q22.359375 256.375 23.296875 256.375Q23.984375 256.375 24.5 256.65625Q25.03125 256.9375 25.375 257.46875Q25.71875 257.98438 25.90625 258.73438Q26.09375 259.48438 26.09375 260.76562Q26.09375 262.28125 25.78125 263.20312Q25.484375 264.125 24.859375 264.64062Q24.25 265.14062 23.296875 265.14062Q22.0625 265.14062 21.34375 264.25Q20.5 263.1875 20.5 260.76562ZM21.578125 260.76562Q21.578125 262.875 22.078125 263.57812Q22.578125 264.28125 23.296875 264.28125Q24.03125 264.28125 24.515625 263.57812Q25.015625 262.875 25.015625 260.76562Q25.015625 258.64062 24.515625 257.95312Q24.03125 257.25 23.28125 257.25Q22.5625 257.25 22.125 257.85938Q21.578125 258.64062 21.578125 260.76562ZM27.5 260.76562Q27.5 259.23438 27.8125 258.3125Q28.125 257.375 28.734375 256.875Q29.359375 256.375 30.296875 256.375Q30.984375 256.375 31.5 256.65625Q32.03125 256.9375 32.375 257.46875Q32.71875 257.98438 32.90625 258.73438Q33.09375 259.48438 33.09375 260.76562Q33.09375 262.28125 32.78125 263.20312Q32.484375 264.125 31.859375 264.64062Q31.25 265.14062 30.296875 265.14062Q29.0625 265.14062 28.34375 264.25Q27.5 263.1875 27.5 260.76562ZM28.578125 260.76562Q28.578125 262.875 29.078125 263.57812Q29.578125 264.28125 30.296875 264.28125Q31.03125 264.28125 31.515625 263.57812Q32.015625 262.875 32.015625 260.76562Q32.015625 258.64062 31.515625 257.95312Q31.03125 257.25 30.28125 257.25Q29.5625 257.25 29.125 257.85938Q28.578125 258.64062 28.578125 260.76562Z" fill-rule="nonzero"/><path fill="#000000" d="M10.46875 265.0L9.421875 265.0L9.421875 258.28125Q9.03125 258.64062 8.40625 259.01562Q7.796875 259.375 7.3125 259.54688L7.3125 258.53125Q8.1875 258.10938 8.84375 257.53125Q9.515625 256.9375 9.796875 256.375L10.46875 256.375L10.46875 265.0ZM13.5 260.76562Q13.5 259.23438 13.8125 258.3125Q14.125 257.375 14.734375 256.875Q15.359375 256.375 16.296875 256.375Q16.984375 256.375 17.5 256.65625Q18.03125 256.9375 18.375 257.46875Q18.71875 257.98438 18.90625 258.73438Q19.09375 259.48438 19.09375 260.76562Q19.09375 262.28125 18.78125 263.20312Q18.484375 264.125 17.859375 264.64062Q17.25 265.14062 16.296875 265.14062Q15.0625 265.14062 14.34375 264.25Q13.5 263.1875 13.5 260.76562ZM14.578125 260.76562Q14.578125 262.875 15.078125 263.57812Q15.578125 264.28125 16.296875 264.28125Q17.03125 264.28125 17.515625 263.57812Q18.015625 262.875 18.015625 260.76562Q18.015625 258.64062 17.515625 257.95312Q17.03125 257.25 16.28125 257.25Q15.5625 257.25 15.125 257.85938Q14.578125 258.64062 14.578125 260.76562ZM20.5 260.76562Q20.5 259.23438 20.8125 258.3125Q21.125 257.375 21.734375 256.875Q22.359375 256.375 23.296875 256.375Q23.984375 256.375 24.5 256.65625Q25.03125 256.9375 25.375 257.46875Q25.71875 257.98438 25.90625 258.73438Q26.09375 259.48438 26.09375 260.76562Q26.09375 262.28125 25.78125 263.20312Q25.484375 264.125 24.859375 264.64062Q24.25 265.14062 23.296875 265.14062Q22.0625 265.14062 21.34375 264.25Q20.5 263.1875 20.5 260.76562ZM21.578125 260.76562Q21.578125 262.875 22.078125 263.57812Q22.578125 264.28125 23.296875 264.28125Q24.03125 264.28125 24.515625 263.57812Q25.015625 262.875 25.015625 260.76562Q25.015625 258.64062 24.515625 257.95312Q24.03125 257.25 23.28125 257.25Q22.5625 257.25 22.125 257.85938Q21.578125 258.64062 21.578125 260.76562ZM27.5 260.76562Q27.5 259.23438 27.8125 258.3125Q28.125 257.375 28.734375 256.875Q29.359375 256.375 30.296875 256.375Q30.984375 256.375 31.5 256.65625Q32.03125 256.9375 32.375 257.46875Q32.71875 257.98438 32.90625 258.73438Q33.09375 259.48438 33.09375 260.76562Q33.09375 262.28125 32.78125 263.20312Q32.484375 264.125 31.859375 264.64062Q31.25 265.14062 30.296875 265.14062Q29.0625 265.14062 28.34375 264.25Q27.5 263.1875 27.5 260.76562ZM28.578125 260.76562Q28.578125 262.875 29.078125 263.57812Q29.578125 264.28125 30.296875 264.28125Q31.03125 264.28125 31.515625 263.57812Q32.015625 262.875 32.015625 260.76562Q32.015625 258.64062 31.515625 257.95312Q31.03125 257.25 30.28125 257.25Q29.5625 257.25 29.125 257.85938Q28.578125 258.64062 28.578125 260.76562Z" fill-rule="nonzero"/><path fill="#ffffff" d="M232.3645 734.9375L232.3645 738.0L220.81763 738.0Q221.00513 736.2656 221.94263 734.71875Q222.88013 733.15625 225.64575 730.59375Q227.88013 728.5156 228.38013 727.78125Q229.06763 726.7656 229.06763 725.7656Q229.06763 724.65625 228.47388 724.0781Q227.88013 723.4844 226.83325 723.4844Q225.802 723.4844 225.19263 724.1094Q224.58325 724.71875 224.4895 726.15625L221.20825 725.8281Q221.50513 723.1094 223.052 721.9375Q224.59888 720.75 226.91138 720.75Q229.45825 720.75 230.91138 722.125Q232.3645 723.4844 232.3645 725.53125Q232.3645 726.6875 231.94263 727.7344Q231.53638 728.78125 230.63013 729.9375Q230.03638 730.7031 228.47388 732.1406Q226.91138 733.5625 226.4895 734.03125Q226.08325 734.5 225.83325 734.9375L232.3645 734.9375ZM239.81763 720.75Q242.302 720.75 243.70825 722.53125Q245.39575 724.6406 245.39575 729.53125Q245.39575 734.40625 243.70825 736.53125Q242.302 738.2969 239.81763 738.2969Q237.302 738.2969 235.77075 736.375Q234.2395 734.4375 234.2395 729.4844Q234.2395 724.6406 235.927 722.5Q237.31763 720.75 239.81763 720.75ZM239.81763 723.4844Q239.20825 723.4844 238.7395 723.8594Q238.27075 724.2344 238.02075 725.21875Q237.677 726.5 237.677 729.53125Q237.677 732.5469 237.97388 733.6875Q238.28638 734.8125 238.7395 735.1875Q239.20825 735.5625 239.81763 735.5625Q240.41138 735.5625 240.88013 735.1875Q241.34888 734.7969 241.59888 733.8125Q241.94263 732.5469 241.94263 729.53125Q241.94263 726.5 241.63013 725.375Q241.33325 724.2344 240.8645 723.8594Q240.41138 723.4844 239.81763 723.4844ZM258.3645 734.9375L258.3645 738.0L246.81763 738.0Q247.00513 736.2656 247.94263 734.71875Q248.88013 733.15625 251.64575 730.59375Q253.88013 728.5156 254.38013 727.78125Q255.06763 726.7656 255.06763 725.7656Q255.06763 724.65625 254.47388 724.0781Q253.88013 723.4844 252.83325 723.4844Q251.802 723.4844 251.19263 724.1094Q250.58325 724.71875 250.4895 726.15625L247.20825 725.8281Q247.50513 723.1094 249.052 721.9375Q250.59888 720.75 252.91138 720.75Q255.45825 720.75 256.91138 722.125Q258.3645 723.4844 258.3645 725.53125Q258.3645 726.6875 257.94263 727.7344Q257.53638 728.78125 256.63013 729.9375Q256.03638 730.7031 254.47388 732.1406Q252.91138 733.5625 252.4895 734.03125Q252.08325 734.5 251.83325 734.9375L258.3645 734.9375ZM271.3645 734.9375L271.3645 738.0L259.81763 738.0Q260.00513 736.2656 260.94263 734.71875Q261.88013 733.15625 264.64575 730.59375Q266.88013 728.5156 267.38013 727.78125Q268.06763 726.7656 268.06763 725.7656Q268.06763 724.65625 267.47388 724.0781Q266.88013 723.4844 265.83325 723.4844Q264.802 723.4844 264.19263 724.1094Q263.58325 724.71875 263.4895 726.15625L260.20825 725.8281Q260.50513 723.1094 262.052 721.9375Q263.59888 720.75 265.91138 720.75Q268.45825 720.75 269.91138 722.125Q271.3645 723.4844 271.3645 725.53125Q271.3645 726.6875 270.94263 727.7344Q270.53638 728.78125 269.63013 729.9375Q269.03638 730.7031 267.47388 732.1406Q265.91138 733.5625 265.4895 734.03125Q265.08325 734.5 264.83325 734.9375L271.3645 734.9375Z" fill-rule="nonzero"/><path fill="#ffffff" d="M597.1406 734.9375L597.1406 738.0L585.59375 738.0Q585.78125 736.2656 586.71875 734.71875Q587.65625 733.15625 590.4219 730.59375Q592.65625 728.5156 593.15625 727.78125Q593.84375 726.7656 593.84375 725.7656Q593.84375 724.65625 593.25 724.0781Q592.65625 723.4844 591.6094 723.4844Q590.5781 723.4844 589.96875 724.1094Q589.3594 724.71875 589.2656 726.15625L585.9844 725.8281Q586.28125 723.1094 587.8281 721.9375Q589.375 720.75 591.6875 720.75Q594.2344 720.75 595.6875 722.125Q597.1406 723.4844 597.1406 725.53125Q597.1406 726.6875 596.71875 727.7344Q596.3125 728.78125 595.40625 729.9375Q594.8125 730.7031 593.25 732.1406Q591.6875 733.5625 591.2656 734.03125Q590.8594 734.5 590.6094 734.9375L597.1406 734.9375ZM604.59375 720.75Q607.0781 720.75 608.4844 722.53125Q610.1719 724.6406 610.1719 729.53125Q610.1719 734.40625 608.4844 736.53125Q607.0781 738.2969 604.59375 738.2969Q602.0781 738.2969 600.5469 736.375Q599.0156 734.4375 599.0156 729.4844Q599.0156 724.6406 600.7031 722.5Q602.09375 720.75 604.59375 720.75ZM604.59375 723.4844Q603.9844 723.4844 603.5156 723.8594Q603.0469 724.2344 602.7969 725.21875Q602.4531 726.5 602.4531 729.53125Q602.4531 732.5469 602.75 733.6875Q603.0625 734.8125 603.5156 735.1875Q603.9844 735.5625 604.59375 735.5625Q605.1875 735.5625 605.65625 735.1875Q606.125 734.7969 606.375 733.8125Q606.71875 732.5469 606.71875 729.53125Q606.71875 726.5 606.40625 725.375Q606.1094 724.2344 605.6406 723.8594Q605.1875 723.4844 604.59375 723.4844ZM623.1406 734.9375L623.1406 738.0L611.59375 738.0Q611.78125 736.2656 612.71875 734.71875Q613.65625 733.15625 616.4219 730.59375Q618.65625 728.5156 619.15625 727.78125Q619.84375 726.7656 619.84375 725.7656Q619.84375 724.65625 619.25 724.0781Q618.65625 723.4844 617.6094 723.4844Q616.5781 723.4844 615.96875 724.1094Q615.3594 724.71875 615.2656 726.15625L611.9844 725.8281Q612.28125 723.1094 613.8281 721.9375Q615.375 720.75 617.6875 720.75Q620.2344 720.75 621.6875 722.125Q623.1406 723.4844 623.1406 725.53125Q623.1406 726.6875 622.71875 727.7344Q622.3125 728.78125 621.40625 729.9375Q620.8125 730.7031 619.25 732.1406Q617.6875 733.5625 617.2656 734.03125Q616.8594 734.5 616.6094 734.9375L623.1406 734.9375ZM624.90625 733.4375L628.09375 733.0469Q628.25 734.2656 628.90625 734.9219Q629.5781 735.5625 630.53125 735.5625Q631.5469 735.5625 632.2344 734.7969Q632.9375 734.0156 632.9375 732.7031Q632.9375 731.4531 632.2656 730.7344Q631.6094 730.0 630.6406 730.0Q630.0156 730.0 629.1406 730.25L629.5 727.5625Q630.8281 727.6094 631.53125 727.0Q632.2344 726.375 632.2344 725.3594Q632.2344 724.4844 631.71875 723.96875Q631.2031 723.4531 630.3594 723.4531Q629.5156 723.4531 628.90625 724.0469Q628.3125 724.625 628.1875 725.75L625.15625 725.2344Q625.46875 723.6719 626.1094 722.75Q626.75 721.8125 627.8906 721.28125Q629.03125 720.75 630.4531 720.75Q632.875 720.75 634.34375 722.2969Q635.5469 723.5625 635.5469 725.15625Q635.5469 727.4219 633.0781 728.7656Q634.5469 729.0781 635.4219 730.1875Q636.3125 731.28125 636.3125 732.84375Q636.3125 735.1094 634.65625 736.7031Q633.0156 738.2969 630.5469 738.2969Q628.21875 738.2969 626.6875 736.9531Q625.15625 735.6094 624.90625 733.4375Z" fill-rule="nonzero"/><path fill="#ffffff" d="M961.91675 734.9375L961.91675 738.0L950.3699 738.0Q950.5574 736.2656 951.4949 734.71875Q952.4324 733.15625 955.198 730.59375Q957.4324 728.5156 957.9324 727.78125Q958.6199 726.7656 958.6199 725.7656Q958.6199 724.65625 958.0261 724.0781Q957.4324 723.4844 956.3855 723.4844Q955.35425 723.4844 954.7449 724.1094Q954.1355 724.71875 954.04175 726.15625L950.7605 725.8281Q951.0574 723.1094 952.60425 721.9375Q954.1511 720.75 956.4636 720.75Q959.0105 720.75 960.4636 722.125Q961.91675 723.4844 961.91675 725.53125Q961.91675 726.6875 961.4949 727.7344Q961.0886 728.78125 960.1824 729.9375Q959.5886 730.7031 958.0261 732.1406Q956.4636 733.5625 956.04175 734.03125Q955.6355 734.5 955.3855 734.9375L961.91675 734.9375ZM969.3699 720.75Q971.85425 720.75 973.2605 722.53125Q974.948 724.6406 974.948 729.53125Q974.948 734.40625 973.2605 736.53125Q971.85425 738.2969 969.3699 738.2969Q966.85425 738.2969 965.323 736.375Q963.79175 734.4375 963.79175 729.4844Q963.79175 724.6406 965.47925 722.5Q966.8699 720.75 969.3699 720.75ZM969.3699 723.4844Q968.7605 723.4844 968.29175 723.8594Q967.823 724.2344 967.573 725.21875Q967.22925 726.5 967.22925 729.53125Q967.22925 732.5469 967.5261 733.6875Q967.8386 734.8125 968.29175 735.1875Q968.7605 735.5625 969.3699 735.5625Q969.9636 735.5625 970.4324 735.1875Q970.9011 734.7969 971.1511 733.8125Q971.4949 732.5469 971.4949 729.53125Q971.4949 726.5 971.1824 725.375Q970.8855 724.2344 970.41675 723.8594Q969.9636 723.4844 969.3699 723.4844ZM987.91675 734.9375L987.91675 738.0L976.3699 738.0Q976.5574 736.2656 977.4949 734.71875Q978.4324 733.15625 981.198 730.59375Q983.4324 728.5156 983.9324 727.78125Q984.6199 726.7656 984.6199 725.7656Q984.6199 724.65625 984.0261 724.0781Q983.4324 723.4844 982.3855 723.4844Q981.35425 723.4844 980.7449 724.1094Q980.1355 724.71875 980.04175 726.15625L976.7605 725.8281Q977.0574 723.1094 978.60425 721.9375Q980.1511 720.75 982.4636 720.75Q985.0105 720.75 986.4636 722.125Q987.91675 723.4844 987.91675 725.53125Q987.91675 726.6875 987.4949 727.7344Q987.0886 728.78125 986.1824 729.9375Q985.5886 730.7031 984.0261 732.1406Q982.4636 733.5625 982.04175 734.03125Q981.6355 734.5 981.3855 734.9375L987.91675 734.9375ZM996.2605 738.0L996.2605 734.5469L989.22925 734.5469L989.22925 731.65625L996.6824 720.75L999.448 720.75L999.448 731.6406L1001.573 731.6406L1001.573 734.5469L999.448 734.5469L999.448 738.0L996.2605 738.0ZM996.2605 731.6406L996.2605 725.78125L992.3074 731.6406L996.2605 731.6406Z" fill-rule="nonzero"/><path fill="#6758f5" d="M5.56 132.56C5.56 132.00772 6.007715 131.56 6.56 131.56L16.56 131.56C17.112286 131.56 17.56 132.00772 17.56 132.56L17.56 142.56C17.56 143.11229 17.112286 143.56 16.56 143.56L6.56 143.56C6.007715 143.56 5.56 143.11229 5.56 142.56Z" fill-rule="nonzero"/><path stroke="#ffffff" stroke-width="3.0" stroke-linejoin="round" stroke-linecap="round" d="M31.77875 145.56L31.77875 130.40375L26.1225 130.40375L26.1225 128.3725L39.7475 128.3725L39.7475 130.40375L34.06 130.40375L34.06 145.56L31.77875 145.56ZM41.138126 145.56L41.138126 128.3725L43.2475 128.3725L43.2475 134.54437Q44.731876 132.82562 46.981876 132.82562Q48.356876 132.82562 49.3725 133.3725Q50.40375 133.91937 50.84125 134.88812Q51.27875 135.84125 51.27875 137.66937L51.27875 145.56L49.169376 145.56L49.169376 137.66937Q49.169376 136.09125 48.481876 135.3725Q47.794376 134.65375 46.544376 134.65375Q45.606876 134.65375 44.77875 135.13812Q43.950626 135.6225 43.59125 136.45062Q43.2475 137.27875 43.2475 138.7475L43.2475 145.56L41.138126 145.56ZM63.669376 141.54437L65.84125 141.82562Q65.32562 143.73187 63.935 144.79437Q62.544376 145.84125 60.3725 145.84125Q57.638126 145.84125 56.02875 144.16937Q54.435 142.48187 54.435 139.435Q54.435 136.29437 56.044376 134.56Q57.669376 132.82562 60.2475 132.82562Q62.7475 132.82562 64.32562 134.52875Q65.91937 136.23187 65.91937 139.31Q65.91937 139.4975 65.90375 139.8725L56.6225 139.8725Q56.731876 141.91937 57.77875 143.01312Q58.825626 144.10687 60.388126 144.10687Q61.544376 144.10687 62.356876 143.4975Q63.185 142.88812 63.669376 141.54437ZM56.731876 138.13812L63.685 138.13812Q63.544376 136.57562 62.888126 135.77875Q61.888126 134.56 60.27875 134.56Q58.825626 134.56 57.825626 135.54437Q56.84125 136.51312 56.731876 138.13812ZM75.41937 145.56L75.41937 128.3725L81.88812 128.3725Q83.60687 128.3725 84.51312 128.54437Q85.77875 128.7475 86.6225 129.34125Q87.48187 129.935 87.9975 131.01312Q88.52875 132.07562 88.52875 133.34125Q88.52875 135.54437 87.1225 137.06Q85.73187 138.57562 82.09125 138.57562L77.685 138.57562L77.685 145.56L75.41937 145.56ZM77.685 136.54437L82.1225 136.54437Q84.32562 136.54437 85.2475 135.73187Q86.185 134.90375 86.185 133.41937Q86.185 132.34125 85.63812 131.57562Q85.09125 130.81 84.20062 130.56Q83.6225 130.40375 82.07562 130.40375L77.685 130.40375L77.685 136.54437ZM91.48187 145.56L91.48187 128.3725L93.76312 128.3725L93.76312 135.435L102.685 135.435L102.685 128.3725L104.96625 128.3725L104.96625 145.56L102.685 145.56L102.685 137.46625L93.76312 137.46625L93.76312 145.56L91.48187 145.56ZM108.41937 145.56L108.41937 128.3725L114.88812 128.3725Q116.60687 128.3725 117.51312 128.54437Q118.77875 128.7475 119.6225 129.34125Q120.48187 129.935 120.9975 131.01312Q121.52875 132.07562 121.52875 133.34125Q121.52875 135.54437 120.1225 137.06Q118.73187 138.57562 115.09125 138.57562L110.685 138.57562L110.685 145.56L108.41937 145.56ZM110.685 136.54437L115.1225 136.54437Q117.32562 136.54437 118.2475 135.73187Q119.185 134.90375 119.185 133.41937Q119.185 132.34125 118.63812 131.57562Q118.09125 130.81 117.20062 130.56Q116.6225 130.40375 115.07562 130.40375L110.685 130.40375L110.685 136.54437ZM131.52875 145.56L131.52875 128.3725L143.1225 128.3725L143.1225 130.40375L133.81 130.40375L133.81 135.73187L141.8725 135.73187L141.8725 137.7475L133.81 137.7475L133.81 145.56L131.52875 145.56ZM145.35687 139.34125Q145.35687 135.8725 147.27875 134.21625Q148.88812 132.82562 151.20062 132.82562Q153.76312 132.82562 155.38812 134.51312Q157.01312 136.20062 157.01312 139.15375Q157.01312 141.56 156.29437 142.935Q155.57562 144.31 154.20062 145.07562Q152.82562 145.84125 151.20062 145.84125Q148.57562 145.84125 146.96625 144.16937Q145.35687 142.48187 145.35687 139.34125ZM147.52875 139.34125Q147.52875 141.73187 148.56 142.91937Q149.60687 144.10687 151.20062 144.10687Q152.76312 144.10687 153.81 142.91937Q154.85687 141.71625 154.85687 139.26312Q154.85687 136.95062 153.79437 135.76312Q152.7475 134.57562 151.20062 134.57562Q149.60687 134.57562 148.56 135.76312Q147.52875 136.95062 147.52875 139.34125ZM167.29437 145.56L167.29437 143.73187Q165.84125 145.84125 163.35687 145.84125Q162.2475 145.84125 161.29437 145.41937Q160.34125 144.9975 159.8725 144.35687Q159.41937 143.71625 159.23187 142.79437Q159.09125 142.16937 159.09125 140.82562L159.09125 133.10687L161.20062 133.10687L161.20062 140.01312Q161.20062 141.66937 161.34125 142.2475Q161.52875 143.07562 162.16937 143.56Q162.82562 144.02875 163.77875 144.02875Q164.71625 144.02875 165.54437 143.54437Q166.38812 143.04437 166.73187 142.21625Q167.07562 141.3725 167.07562 139.77875L167.07562 133.10687L169.185 133.10687L169.185 145.56L167.29437 145.56ZM173.13812 145.56L173.13812 133.10687L175.04437 133.10687L175.04437 134.88812Q176.41937 132.82562 178.9975 132.82562Q180.1225 132.82562 181.06 133.23187Q182.01312 133.63812 182.48187 134.29437Q182.95062 134.95062 183.13812 135.85687Q183.26312 136.435 183.26312 137.90375L183.26312 145.56L181.15375 145.56L181.15375 137.98187Q181.15375 136.70062 180.90375 136.06Q180.65375 135.41937 180.02875 135.04437Q179.40375 134.65375 178.56 134.65375Q177.21625 134.65375 176.23187 135.51312Q175.2475 136.3725 175.2475 138.76312L175.2475 145.56L173.13812 145.56ZM195.21625 145.56L195.21625 143.98187Q194.02875 145.84125 191.73187 145.84125Q190.2475 145.84125 188.9975 145.02875Q187.7475 144.20062 187.06 142.73187Q186.38812 141.26312 186.38812 139.34125Q186.38812 137.48187 186.9975 135.96625Q187.6225 134.45062 188.85687 133.63812Q190.10687 132.82562 191.63812 132.82562Q192.76312 132.82562 193.63812 133.31Q194.52875 133.77875 195.07562 134.54437L195.07562 128.3725L197.16937 128.3725L197.16937 145.56L195.21625 145.56ZM188.54437 139.34125Q188.54437 141.73187 189.54437 142.91937Q190.56 144.10687 191.935 144.10687Q193.32562 144.10687 194.27875 142.98187Q195.2475 141.84125 195.2475 139.52875Q195.2475 136.96625 194.26312 135.77875Q193.27875 134.57562 191.84125 134.57562Q190.435 134.57562 189.48187 135.73187Q188.54437 136.8725 188.54437 139.34125ZM209.26312 144.02875Q208.09125 145.01312 206.9975 145.435Q205.91937 145.84125 204.685 145.84125Q202.63812 145.84125 201.52875 144.84125Q200.435 143.84125 200.435 142.27875Q200.435 141.35687 200.84125 140.60687Q201.26312 139.85687 201.935 139.40375Q202.60687 138.935 203.45062 138.70062Q204.07562 138.54437 205.32562 138.38812Q207.88812 138.07562 209.09125 137.65375Q209.10687 137.23187 209.10687 137.10687Q209.10687 135.82562 208.4975 135.29437Q207.70062 134.57562 206.10687 134.57562Q204.60687 134.57562 203.90375 135.10687Q203.20062 135.6225 202.85687 136.95062L200.79437 136.66937Q201.07562 135.34125 201.71625 134.52875Q202.35687 133.71625 203.57562 133.27875Q204.79437 132.82562 206.40375 132.82562Q207.9975 132.82562 208.9975 133.20062Q209.9975 133.57562 210.46625 134.15375Q210.935 134.71625 211.1225 135.59125Q211.21625 136.1225 211.21625 137.52875L211.21625 140.34125Q211.21625 143.27875 211.35687 144.06Q211.4975 144.84125 211.88812 145.56L209.685 145.56Q209.35687 144.90375 209.26312 144.02875ZM209.09125 139.31Q207.935 139.77875 205.63812 140.10687Q204.34125 140.29437 203.79437 140.52875Q203.26312 140.76312 202.96625 141.21625Q202.685 141.66937 202.685 142.21625Q202.685 143.06 203.31 143.6225Q203.95062 144.185 205.185 144.185Q206.40375 144.185 207.35687 143.65375Q208.31 143.1225 208.7475 142.20062Q209.09125 141.48187 209.09125 140.09125L209.09125 139.31ZM218.7475 143.66937L219.06 145.52875Q218.16937 145.73187 217.46625 145.73187Q216.31 145.73187 215.66937 145.3725Q215.04437 144.9975 214.77875 144.40375Q214.52875 143.81 214.52875 141.91937L214.52875 134.7475L212.98187 134.7475L212.98187 133.10687L214.52875 133.10687L214.52875 130.02875L216.6225 128.76312L216.6225 133.10687L218.7475 133.10687L218.7475 134.7475L216.6225 134.7475L216.6225 142.02875Q216.6225 142.935 216.73187 143.20062Q216.85687 143.45062 217.10687 143.60687Q217.35687 143.7475 217.82562 143.7475Q218.16937 143.7475 218.7475 143.66937ZM221.15375 130.81L221.15375 128.3725L223.26312 128.3725L223.26312 130.81L221.15375 130.81ZM221.15375 145.56L221.15375 133.10687L223.26312 133.10687L223.26312 145.56L221.15375 145.56ZM225.35687 139.34125Q225.35687 135.8725 227.27875 134.21625Q228.88812 132.82562 231.20062 132.82562Q233.76312 132.82562 235.38812 134.51312Q237.01312 136.20062 237.01312 139.15375Q237.01312 141.56 236.29437 142.935Q235.57562 144.31 234.20062 145.07562Q232.82562 145.84125 231.20062 145.84125Q228.57562 145.84125 226.96625 144.16937Q225.35687 142.48187 225.35687 139.34125ZM227.52875 139.34125Q227.52875 141.73187 228.56 142.91937Q229.60687 144.10687 231.20062 144.10687Q232.76312 144.10687 233.81 142.91937Q234.85687 141.71625 234.85687 139.26312Q234.85687 136.95062 233.79437 135.76312Q232.7475 134.57562 231.20062 134.57562Q229.60687 134.57562 228.56 135.76312Q227.52875 136.95062 227.52875 139.34125ZM239.13812 145.56L239.13812 133.10687L241.04437 133.10687L241.04437 134.88812Q242.41937 132.82562 244.9975 132.82562Q246.1225 132.82562 247.06 133.23187Q248.01312 133.63812 248.48187 134.29437Q248.95062 134.95062 249.13812 135.85687Q249.26312 136.435 249.26312 137.90375L249.26312 145.56L247.15375 145.56L247.15375 137.98187Q247.15375 136.70062 246.90375 136.06Q246.65375 135.41937 246.02875 135.04437Q245.40375 134.65375 244.56 134.65375Q243.21625 134.65375 242.23187 135.51312Q241.2475 136.3725 241.2475 138.76312L241.2475 145.56L239.13812 145.56Z" fill-rule="nonzero"/><path fill="#1a1a1a" d="M31.77875 145.56L31.77875 130.40375L26.1225 130.40375L26.1225 128.3725L39.747498 128.3725L39.747498 130.40375L34.059998 130.40375L34.059998 145.56L31.77875 145.56ZM41.138123 145.56L41.138123 128.3725L43.247498 128.3725L43.247498 134.54437Q44.731873 132.82562 46.981873 132.82562Q48.356873 132.82562 49.372498 133.3725Q50.403748 133.91937 50.841248 134.88812Q51.278748 135.84125 51.278748 137.66937L51.278748 145.56L49.169373 145.56L49.169373 137.66937Q49.169373 136.09125 48.481873 135.3725Q47.794373 134.65375 46.544373 134.65375Q45.606873 134.65375 44.778748 135.13812Q43.950623 135.6225 43.591248 136.45062Q43.247498 137.27875 43.247498 138.7475L43.247498 145.56L41.138123 145.56ZM63.669373 141.54437L65.84125 141.82562Q65.32562 143.73187 63.934998 144.79437Q62.544373 145.84125 60.372498 145.84125Q57.638123 145.84125 56.028748 144.16937Q54.434998 142.48187 54.434998 139.435Q54.434998 136.29437 56.044373 134.56Q57.669373 132.82562 60.247498 132.82562Q62.747498 132.82562 64.32562 134.52875Q65.91937 136.23187 65.91937 139.31Q65.91937 139.4975 65.90375 139.8725L56.622498 139.8725Q56.731873 141.91937 57.778748 143.01312Q58.825623 144.10687 60.388123 144.10687Q61.544373 144.10687 62.356873 143.4975Q63.184998 142.88812 63.669373 141.54437ZM56.731873 138.13812L63.684998 138.13812Q63.544373 136.57562 62.888123 135.77875Q61.888123 134.56 60.278748 134.56Q58.825623 134.56 57.825623 135.54437Q56.841248 136.51312 56.731873 138.13812ZM75.41937 145.56L75.41937 128.3725L81.88812 128.3725Q83.60687 128.3725 84.51312 128.54437Q85.77875 128.7475 86.6225 129.34125Q87.48187 129.935 87.9975 131.01312Q88.52875 132.07562 88.52875 133.34125Q88.52875 135.54437 87.1225 137.06Q85.73187 138.57562 82.09125 138.57562L77.685 138.57562L77.685 145.56L75.41937 145.56ZM77.685 136.54437L82.1225 136.54437Q84.32562 136.54437 85.2475 135.73187Q86.185 134.90375 86.185 133.41937Q86.185 132.34125 85.63812 131.57562Q85.09125 130.81 84.20062 130.56Q83.6225 130.40375 82.07562 130.40375L77.685 130.40375L77.685 136.54437ZM91.48187 145.56L91.48187 128.3725L93.76312 128.3725L93.76312 135.435L102.685 135.435L102.685 128.3725L104.96625 128.3725L104.96625 145.56L102.685 145.56L102.685 137.46625L93.76312 137.46625L93.76312 145.56L91.48187 145.56ZM108.41937 145.56L108.41937 128.3725L114.88812 128.3725Q116.60687 128.3725 117.51312 128.54437Q118.77875 128.7475 119.6225 129.34125Q120.48187 129.935 120.9975 131.01312Q121.52875 132.07562 121.52875 133.34125Q121.52875 135.54437 120.1225 137.06Q118.73187 138.57562 115.09125 138.57562L110.685 138.57562L110.685 145.56L108.41937 145.56ZM110.685 136.54437L115.1225 136.54437Q117.32562 136.54437 118.2475 135.73187Q119.185 134.90375 119.185 133.41937Q119.185 132.34125 118.63812 131.57562Q118.09125 130.81 117.20062 130.56Q116.6225 130.40375 115.07562 130.40375L110.685 130.40375L110.685 136.54437ZM131.52875 145.56L131.52875 128.3725L143.1225 128.3725L143.1225 130.40375L133.81 130.40375L133.81 135.73187L141.8725 135.73187L141.8725 137.7475L133.81 137.7475L133.81 145.56L131.52875 145.56ZM145.35687 139.34125Q145.35687 135.8725 147.27875 134.21625Q148.88812 132.82562 151.20062 132.82562Q153.76312 132.82562 155.38812 134.51312Q157.01312 136.20062 157.01312 139.15375Q157.01312 141.56 156.29437 142.935Q155.57562 144.31 154.20062 145.07562Q152.82562 145.84125 151.20062 145.84125Q148.57562 145.84125 146.96625 144.16937Q145.35687 142.48187 145.35687 139.34125ZM147.52875 139.34125Q147.52875 141.73187 148.56 142.91937Q149.60687 144.10687 151.20062 144.10687Q152.76312 144.10687 153.81 142.91937Q154.85687 141.71625 154.85687 139.26312Q154.85687 136.95062 153.79437 135.76312Q152.7475 134.57562 151.20062 134.57562Q149.60687 134.57562 148.56 135.76312Q147.52875 136.95062 147.52875 139.34125ZM167.29437 145.56L167.29437 143.73187Q165.84125 145.84125 163.35687 145.84125Q162.2475 145.84125 161.29437 145.41937Q160.34125 144.9975 159.8725 144.35687Q159.41937 143.71625 159.23187 142.79437Q159.09125 142.16937 159.09125 140.82562L159.09125 133.10687L161.20062 133.10687L161.20062 140.01312Q161.20062 141.66937 161.34125 142.2475Q161.52875 143.07562 162.16937 143.56Q162.82562 144.02875 163.77875 144.02875Q164.71625 144.02875 165.54437 143.54437Q166.38812 143.04437 166.73187 142.21625Q167.07562 141.3725 167.07562 139.77875L167.07562 133.10687L169.185 133.10687L169.185 145.56L167.29437 145.56ZM173.13812 145.56L173.13812 133.10687L175.04437 133.10687L175.04437 134.88812Q176.41937 132.82562 178.9975 132.82562Q180.1225 132.82562 181.06 133.23187Q182.01312 133.63812 182.48187 134.29437Q182.95062 134.95062 183.13812 135.85687Q183.26312 136.435 183.26312 137.90375L183.26312 145.56L181.15375 145.56L181.15375 137.98187Q181.15375 136.70062 180.90375 136.06Q180.65375 135.41937 180.02875 135.04437Q179.40375 134.65375 178.56 134.65375Q177.21625 134.65375 176.23187 135.51312Q175.2475 136.3725 175.2475 138.76312L175.2475 145.56L173.13812 145.56ZM195.21625 145.56L195.21625 143.98187Q194.02875 145.84125 191.73187 145.84125Q190.2475 145.84125 188.9975 145.02875Q187.7475 144.20062 187.06 142.73187Q186.38812 141.26312 186.38812 139.34125Q186.38812 137.48187 186.9975 135.96625Q187.6225 134.45062 188.85687 133.63812Q190.10687 132.82562 191.63812 132.82562Q192.76312 132.82562 193.63812 133.31Q194.52875 133.77875 195.07562 134.54437L195.07562 128.3725L197.16937 128.3725L197.16937 145.56L195.21625 145.56ZM188.54437 139.34125Q188.54437 141.73187 189.54437 142.91937Q190.56 144.10687 191.935 144.10687Q193.32562 144.10687 194.27875 142.98187Q195.2475 141.84125 195.2475 139.52875Q195.2475 136.96625 194.26312 135.77875Q193.27875 134.57562 191.84125 134.57562Q190.435 134.57562 189.48187 135.73187Q188.54437 136.8725 188.54437 139.34125ZM209.26312 144.02875Q208.09125 145.01312 206.9975 145.435Q205.91937 145.84125 204.685 145.84125Q202.63812 145.84125 201.52875 144.84125Q200.435 143.84125 200.435 142.27875Q200.435 141.35687 200.84125 140.60687Q201.26312 139.85687 201.935 139.40375Q202.60687 138.935 203.45062 138.70062Q204.07562 138.54437 205.32562 138.38812Q207.88812 138.07562 209.09125 137.65375Q209.10687 137.23187 209.10687 137.10687Q209.10687 135.82562 208.4975 135.29437Q207.70062 134.57562 206.10687 134.57562Q204.60687 134.57562 203.90375 135.10687Q203.20062 135.6225 202.85687 136.95062L200.79437 136.66937Q201.07562 135.34125 201.71625 134.52875Q202.35687 133.71625 203.57562 133.27875Q204.79437 132.82562 206.40375 132.82562Q207.9975 132.82562 208.9975 133.20062Q209.9975 133.57562 210.46625 134.15375Q210.935 134.71625 211.1225 135.59125Q211.21625 136.1225 211.21625 137.52875L211.21625 140.34125Q211.21625 143.27875 211.35687 144.06Q211.4975 144.84125 211.88812 145.56L209.685 145.56Q209.35687 144.90375 209.26312 144.02875ZM209.09125 139.31Q207.935 139.77875 205.63812 140.10687Q204.34125 140.29437 203.79437 140.52875Q203.26312 140.76312 202.96625 141.21625Q202.685 141.66937 202.685 142.21625Q202.685 143.06 203.31 143.6225Q203.95062 144.185 205.185 144.185Q206.40375 144.185 207.35687 143.65375Q208.31 143.1225 208.7475 142.20062Q209.09125 141.48187 209.09125 140.09125L209.09125 139.31ZM218.7475 143.66937L219.06 145.52875Q218.16937 145.73187 217.46625 145.73187Q216.31 145.73187 215.66937 145.3725Q215.04437 144.9975 214.77875 144.40375Q214.52875 143.81 214.52875 141.91937L214.52875 134.7475L212.98187 134.7475L212.98187 133.10687L214.52875 133.10687L214.52875 130.02875L216.6225 128.76312L216.6225 133.10687L218.7475 133.10687L218.7475 134.7475L216.6225 134.7475L216.6225 142.02875Q216.6225 142.935 216.73187 143.20062Q216.85687 143.45062 217.10687 143.60687Q217.35687 143.7475 217.82562 143.7475Q218.16937 143.7475 218.7475 143.66937ZM221.15375 130.81L221.15375 128.3725L223.26312 128.3725L223.26312 130.81L221.15375 130.81ZM221.15375 145.56L221.15375 133.10687L223.26312 133.10687L223.26312 145.56L221.15375 145.56ZM225.35687 139.34125Q225.35687 135.8725 227.27875 134.21625Q228.88812 132.82562 231.20062 132.82562Q233.76312 132.82562 235.38812 134.51312Q237.01312 136.20062 237.01312 139.15375Q237.01312 141.56 236.29437 142.935Q235.57562 144.31 234.20062 145.07562Q232.82562 145.84125 231.20062 145.84125Q228.57562 145.84125 226.96625 144.16937Q225.35687 142.48187 225.35687 139.34125ZM227.52875 139.34125Q227.52875 141.73187 228.56 142.91937Q229.60687 144.10687 231.20062 144.10687Q232.76312 144.10687 233.81 142.91937Q234.85687 141.71625 234.85687 139.26312Q234.85687 136.95062 233.79437 135.76312Q232.7475 134.57562 231.20062 134.57562Q229.60687 134.57562 228.56 135.76312Q227.52875 136.95062 227.52875 139.34125ZM239.13812 145.56L239.13812 133.10687L241.04437 133.10687L241.04437 134.88812Q242.41937 132.82562 244.9975 132.82562Q246.1225 132.82562 247.06 133.23187Q248.01312 133.63812 248.48187 134.29437Q248.95062 134.95062 249.13812 135.85687Q249.26312 136.435 249.26312 137.90375L249.26312 145.56L247.15375 145.56L247.15375 137.98187Q247.15375 136.70062 246.90375 136.06Q246.65375 135.41937 246.02875 135.04437Q245.40375 134.65375 244.56 134.65375Q243.21625 134.65375 242.23187 135.51312Q241.2475 136.3725 241.2475 138.76312L241.2475 145.56L239.13812 145.56Z" fill-rule="nonzero"/><path fill="#fe4d7f" d="M267.56 132.56C267.56 132.00772 268.00772 131.56 268.56 131.56L278.56 131.56C279.11227 131.56 279.56 132.00772 279.56 132.56L279.56 142.56C279.56 143.11229 279.11227 143.56 278.56 143.56L268.56 143.56C268.00772 143.56 267.56 143.11229 267.56 142.56Z" fill-rule="nonzero"/><path stroke="#ffffff" stroke-width="3.0" stroke-linejoin="round" stroke-linecap="round" d="M288.71625 137.185Q288.71625 132.91937 291.01312 130.4975Q293.31 128.07562 296.95062 128.07562Q299.32562 128.07562 301.23187 129.21625Q303.15375 130.34125 304.15375 132.38812Q305.15375 134.41937 305.15375 136.9975Q305.15375 139.60687 304.09125 141.66937Q303.04437 143.73187 301.10687 144.79437Q299.16937 145.85687 296.935 145.85687Q294.51312 145.85687 292.59125 144.685Q290.685 143.51312 289.70062 141.48187Q288.71625 139.45062 288.71625 137.185ZM291.06 137.23187Q291.06 140.32562 292.73187 142.1225Q294.40375 143.90375 296.91937 143.90375Q299.4975 143.90375 301.15375 142.10687Q302.81 140.29437 302.81 136.98187Q302.81 134.88812 302.09125 133.32562Q301.38812 131.7475 300.01312 130.88812Q298.65375 130.02875 296.96625 130.02875Q294.54437 130.02875 292.79437 131.685Q291.06 133.34125 291.06 137.23187ZM312.7475 143.66937L313.06 145.52875Q312.16937 145.73187 311.46625 145.73187Q310.31 145.73187 309.66937 145.3725Q309.04437 144.9975 308.77875 144.40375Q308.52875 143.81 308.52875 141.91937L308.52875 134.7475L306.98187 134.7475L306.98187 133.10687L308.52875 133.10687L308.52875 130.02875L310.6225 128.76312L310.6225 133.10687L312.7475 133.10687L312.7475 134.7475L310.6225 134.7475L310.6225 142.02875Q310.6225 142.935 310.73187 143.20062Q310.85687 143.45062 311.10687 143.60687Q311.35687 143.7475 311.82562 143.7475Q312.16937 143.7475 312.7475 143.66937ZM315.13812 145.56L315.13812 128.3725L317.2475 128.3725L317.2475 134.54437Q318.73187 132.82562 320.98187 132.82562Q322.35687 132.82562 323.3725 133.3725Q324.40375 133.91937 324.84125 134.88812Q325.27875 135.84125 325.27875 137.66937L325.27875 145.56L323.16937 145.56L323.16937 137.66937Q323.16937 136.09125 322.48187 135.3725Q321.79437 134.65375 320.54437 134.65375Q319.60687 134.65375 318.77875 135.13812Q317.95062 135.6225 317.59125 136.45062Q317.2475 137.27875 317.2475 138.7475L317.2475 145.56L315.13812 145.56ZM337.66937 141.54437L339.84125 141.82562Q339.32562 143.73187 337.935 144.79437Q336.54437 145.84125 334.3725 145.84125Q331.63812 145.84125 330.02875 144.16937Q328.435 142.48187 328.435 139.435Q328.435 136.29437 330.04437 134.56Q331.66937 132.82562 334.2475 132.82562Q336.7475 132.82562 338.32562 134.52875Q339.91937 136.23187 339.91937 139.31Q339.91937 139.4975 339.90375 139.8725L330.6225 139.8725Q330.73187 141.91937 331.77875 143.01312Q332.82562 144.10687 334.38812 144.10687Q335.54437 144.10687 336.35687 143.4975Q337.185 142.88812 337.66937 141.54437ZM330.73187 138.13812L337.685 138.13812Q337.54437 136.57562 336.88812 135.77875Q335.88812 134.56 334.27875 134.56Q332.82562 134.56 331.82562 135.54437Q330.84125 136.51312 330.73187 138.13812ZM342.1225 145.56L342.1225 133.10687L344.01312 133.10687L344.01312 134.9975Q344.7475 133.66937 345.35687 133.2475Q345.98187 132.82562 346.71625 132.82562Q347.77875 132.82562 348.88812 133.51312L348.15375 135.46625Q347.38812 135.01312 346.60687 135.01312Q345.91937 135.01312 345.35687 135.435Q344.81 135.84125 344.57562 136.57562Q344.23187 137.70062 344.23187 139.04437L344.23187 145.56L342.1225 145.56ZM349.29437 141.84125L351.38812 141.51312Q351.56 142.76312 352.35687 143.435Q353.16937 144.10687 354.60687 144.10687Q356.06 144.10687 356.76312 143.51312Q357.46625 142.91937 357.46625 142.1225Q357.46625 141.40375 356.84125 140.9975Q356.41937 140.71625 354.685 140.27875Q352.3725 139.70062 351.46625 139.27875Q350.57562 138.84125 350.10687 138.09125Q349.65375 137.32562 349.65375 136.41937Q349.65375 135.59125 350.02875 134.88812Q350.41937 134.16937 351.07562 133.70062Q351.56 133.34125 352.40375 133.09125Q353.26312 132.82562 354.23187 132.82562Q355.70062 132.82562 356.81 133.2475Q357.91937 133.66937 358.435 134.40375Q358.96625 135.1225 359.16937 136.32562L357.10687 136.60687Q356.96625 135.63812 356.29437 135.10687Q355.6225 134.56 354.38812 134.56Q352.935 134.56 352.31 135.04437Q351.685 135.52875 351.685 136.16937Q351.685 136.57562 351.95062 136.90375Q352.20062 137.2475 352.76312 137.46625Q353.07562 137.59125 354.6225 138.01312Q356.85687 138.60687 357.73187 138.9975Q358.6225 139.3725 359.1225 140.10687Q359.63812 140.82562 359.63812 141.90375Q359.63812 142.95062 359.01312 143.88812Q358.40375 144.82562 357.2475 145.34125Q356.09125 145.84125 354.6225 145.84125Q352.20062 145.84125 350.91937 144.84125Q349.65375 143.82562 349.29437 141.84125Z" fill-rule="nonzero"/><path fill="#1a1a1a" d="M288.71625 137.185Q288.71625 132.91937 291.01312 130.4975Q293.31 128.07562 296.95062 128.07562Q299.32562 128.07562 301.23187 129.21625Q303.15375 130.34125 304.15375 132.38812Q305.15375 134.41937 305.15375 136.9975Q305.15375 139.60687 304.09125 141.66937Q303.04437 143.73187 301.10687 144.79437Q299.16937 145.85687 296.935 145.85687Q294.51312 145.85687 292.59125 144.685Q290.685 143.51312 289.70062 141.48187Q288.71625 139.45062 288.71625 137.185ZM291.06 137.23187Q291.06 140.32562 292.73187 142.1225Q294.40375 143.90375 296.91937 143.90375Q299.4975 143.90375 301.15375 142.10687Q302.81 140.29437 302.81 136.98187Q302.81 134.88812 302.09125 133.32562Q301.38812 131.7475 300.01312 130.88812Q298.65375 130.02875 296.96625 130.02875Q294.54437 130.02875 292.79437 131.685Q291.06 133.34125 291.06 137.23187ZM312.7475 143.66937L313.06 145.52875Q312.16937 145.73187 311.46625 145.73187Q310.31 145.73187 309.66937 145.3725Q309.04437 144.9975 308.77875 144.40375Q308.52875 143.81 308.52875 141.91937L308.52875 134.7475L306.98187 134.7475L306.98187 133.10687L308.52875 133.10687L308.52875 130.02875L310.6225 128.76312L310.6225 133.10687L312.7475 133.10687L312.7475 134.7475L310.6225 134.7475L310.6225 142.02875Q310.6225 142.935 310.73187 143.20062Q310.85687 143.45062 311.10687 143.60687Q311.35687 143.7475 311.82562 143.7475Q312.16937 143.7475 312.7475 143.66937ZM315.13812 145.56L315.13812 128.3725L317.2475 128.3725L317.2475 134.54437Q318.73187 132.82562 320.98187 132.82562Q322.35687 132.82562 323.3725 133.3725Q324.40375 133.91937 324.84125 134.88812Q325.27875 135.84125 325.27875 137.66937L325.27875 145.56L323.16937 145.56L323.16937 137.66937Q323.16937 136.09125 322.48187 135.3725Q321.79437 134.65375 320.54437 134.65375Q319.60687 134.65375 318.77875 135.13812Q317.95062 135.6225 317.59125 136.45062Q317.2475 137.27875 317.2475 138.7475L317.2475 145.56L315.13812 145.56ZM337.66937 141.54437L339.84125 141.82562Q339.32562 143.73187 337.935 144.79437Q336.54437 145.84125 334.3725 145.84125Q331.63812 145.84125 330.02875 144.16937Q328.435 142.48187 328.435 139.435Q328.435 136.29437 330.04437 134.56Q331.66937 132.82562 334.2475 132.82562Q336.7475 132.82562 338.32562 134.52875Q339.91937 136.23187 339.91937 139.31Q339.91937 139.4975 339.90375 139.8725L330.6225 139.8725Q330.73187 141.91937 331.77875 143.01312Q332.82562 144.10687 334.38812 144.10687Q335.54437 144.10687 336.35687 143.4975Q337.185 142.88812 337.66937 141.54437ZM330.73187 138.13812L337.685 138.13812Q337.54437 136.57562 336.88812 135.77875Q335.88812 134.56 334.27875 134.56Q332.82562 134.56 331.82562 135.54437Q330.84125 136.51312 330.73187 138.13812ZM342.1225 145.56L342.1225 133.10687L344.01312 133.10687L344.01312 134.9975Q344.7475 133.66937 345.35687 133.2475Q345.98187 132.82562 346.71625 132.82562Q347.77875 132.82562 348.88812 133.51312L348.15375 135.46625Q347.38812 135.01312 346.60687 135.01312Q345.91937 135.01312 345.35687 135.435Q344.81 135.84125 344.57562 136.57562Q344.23187 137.70062 344.23187 139.04437L344.23187 145.56L342.1225 145.56ZM349.29437 141.84125L351.38812 141.51312Q351.56 142.76312 352.35687 143.435Q353.16937 144.10687 354.60687 144.10687Q356.06 144.10687 356.76312 143.51312Q357.46625 142.91937 357.46625 142.1225Q357.46625 141.40375 356.84125 140.9975Q356.41937 140.71625 354.685 140.27875Q352.3725 139.70062 351.46625 139.27875Q350.57562 138.84125 350.10687 138.09125Q349.65375 137.32562 349.65375 136.41937Q349.65375 135.59125 350.02875 134.88812Q350.41937 134.16937 351.07562 133.70062Q351.56 133.34125 352.40375 133.09125Q353.26312 132.82562 354.23187 132.82562Q355.70062 132.82562 356.81 133.2475Q357.91937 133.66937 358.435 134.40375Q358.96625 135.1225 359.16937 136.32562L357.10687 136.60687Q356.96625 135.63812 356.29437 135.10687Q355.6225 134.56 354.38812 134.56Q352.935 134.56 352.31 135.04437Q351.685 135.52875 351.685 136.16937Q351.685 136.57562 351.95062 136.90375Q352.20062 137.2475 352.76312 137.46625Q353.07562 137.59125 354.6225 138.01312Q356.85687 138.60687 357.73187 138.9975Q358.6225 139.3725 359.1225 140.10687Q359.63812 140.82562 359.63812 141.90375Q359.63812 142.95062 359.01312 143.88812Q358.40375 144.82562 357.2475 145.34125Q356.09125 145.84125 354.6225 145.84125Q352.20062 145.84125 350.91937 144.84125Q349.65375 143.82562 349.29437 141.84125Z" fill-rule="nonzero"/></svg>