<svg version="1.1" viewBox="0.0 0.0 528.0 371.0" fill="none" stroke="none" stroke-linecap="square" stroke-miterlimit="10" width="528" height="371" xmlns:xlink="http://www.w3.org/1999/xlink" xmlns="http://www.w3.org/2000/svg"><path fill="#ffffff" d="M0 0L528.0 0L528.0 371.0L0 371.0L0 0Z" fill-rule="nonzero"/><path fill="#f955f9" d="M342.5 18.55C421.77045 18.55 490.11145 74.293144 506.04337 151.94606C521.9753 229.59898 481.10492 307.74884 408.23853 338.96252L342.5 185.5Z" fill-rule="nonzero"/><path fill="#4a86e8" d="M408.23853 338.96252C345.94482 365.6472 273.7005 352.0278 225.3984 304.49377C177.0963 256.95975 162.32072 184.94298 188.00354 122.229576C213.68636 59.516174 274.73145 18.55 342.5 18.55L342.5 185.5Z" fill-rule="nonzero"/><path fill="#f955f9" d="M30.55 25.55C30.55 28.863708 27.863708 31.55 24.55 31.55C21.236292 31.55 18.55 28.863708 18.55 25.55C18.55 22.236292 21.236292 19.55 24.55 19.55C27.863708 19.55 30.55 22.236292 30.55 25.55Z" fill-rule="nonzero"/><path fill="#1a1a1a" d="M41.659374 29.55L41.659374 21.971874L38.83125 21.971874L38.83125 20.95625L45.64375 20.95625L45.64375 21.971874L42.8 21.971874L42.8 29.55L41.659374 29.55ZM45.95625 26.440624Q45.95625 24.70625 46.909374 23.878124Q47.70625 23.190624 48.8625 23.190624Q50.14375 23.190624 50.95625 24.034374Q51.784374 24.8625 51.784374 26.346874Q51.784374 27.55 51.425 28.2375Q51.065624 28.925 50.3625 29.315624Q49.675 29.690624 48.8625 29.690624Q47.565624 29.690624 46.753124 28.8625Q45.95625 28.01875 45.95625 26.440624ZM47.034374 26.440624Q47.034374 27.628124 47.55 28.221874Q48.08125 28.815624 48.8625 28.815624Q49.659374 28.815624 50.175 28.221874Q50.690624 27.628124 50.690624 26.409374Q50.690624 25.253124 50.159374 24.659374Q49.64375 24.065624 48.8625 24.065624Q48.08125 24.065624 47.55 24.659374Q47.034374 25.2375 47.034374 26.440624ZM55.64375 28.6125L55.8 29.534374Q55.346874 29.628124 55.003124 29.628124Q54.425 29.628124 54.1125 29.45625Q53.8 29.26875 53.659374 28.971874Q53.534374 28.675 53.534374 27.721874L53.534374 24.14375L52.76875 24.14375L52.76875 23.33125L53.534374 23.33125L53.534374 21.784374L54.58125 21.159374L54.58125 23.33125L55.64375 23.33125L55.64375 24.14375L54.58125 24.14375L54.58125 27.784374Q54.58125 28.2375 54.628124 28.3625Q54.690624 28.4875 54.815624 28.565624Q54.940624 28.64375 55.175 28.64375Q55.3625 28.64375 55.64375 28.6125ZM60.409374 28.784374Q59.815624 29.284374 59.26875 29.4875Q58.7375 29.690624 58.1125 29.690624Q57.08125 29.690624 56.534374 29.190624Q55.9875 28.690624 55.9875 27.909374Q55.9875 27.45625 56.190624 27.08125Q56.39375 26.690624 56.7375 26.471874Q57.08125 26.2375 57.503124 26.128124Q57.8 26.034374 58.440624 25.95625Q59.70625 25.815624 60.315624 25.596874Q60.315624 25.378124 60.315624 25.33125Q60.315624 24.675 60.01875 24.409374Q59.6125 24.065624 58.815624 24.065624Q58.08125 24.065624 57.721874 24.33125Q57.3625 24.58125 57.190624 25.2375L56.159374 25.096874Q56.3 24.440624 56.628124 24.034374Q56.95625 23.628124 57.565624 23.409374Q58.175 23.190624 58.971874 23.190624Q59.76875 23.190624 60.26875 23.378124Q60.76875 23.565624 61.003124 23.846874Q61.2375 24.128124 61.33125 24.565624Q61.378124 24.83125 61.378124 25.534374L61.378124 26.940624Q61.378124 28.409374 61.440624 28.8Q61.51875 29.190624 61.721874 29.55L60.6125 29.55Q60.45625 29.221874 60.409374 28.784374ZM60.315624 26.425Q59.7375 26.659374 58.596874 26.83125Q57.940624 26.925 57.675 27.05Q57.409374 27.159374 57.253124 27.378124Q57.1125 27.596874 57.1125 27.878124Q57.1125 28.3 57.425 28.58125Q57.753124 28.8625 58.3625 28.8625Q58.971874 28.8625 59.440624 28.596874Q59.925 28.33125 60.14375 27.8625Q60.315624 27.503124 60.315624 26.815624L60.315624 26.425ZM63.315624 29.55L63.315624 20.95625L64.37813 20.95625L64.37813 29.55L63.315624 29.55ZM70.31563 29.55L69.33125 29.55L69.33125 20.95625L70.39375 20.95625L70.39375 24.01875Q71.06563 23.190624 72.09688 23.190624Q72.675 23.190624 73.175 23.425Q73.69063 23.64375 74.01875 24.065624Q74.3625 24.4875 74.55 25.08125Q74.7375 25.675 74.7375 26.346874Q74.7375 27.940624 73.94063 28.815624Q73.14375 29.690624 72.05 29.690624Q70.94063 29.690624 70.31563 28.76875L70.31563 29.55ZM70.3 26.39375Q70.3 27.503124 70.6125 28.003124Q71.1125 28.815624 71.95625 28.815624Q72.64375 28.815624 73.14375 28.221874Q73.65938 27.628124 73.65938 26.425Q73.65938 25.20625 73.175 24.628124Q72.69063 24.05 72.00313 24.05Q71.31563 24.05 70.8 24.659374Q70.3 25.253124 70.3 26.39375ZM76.3 31.940624L76.175 30.95625Q76.51875 31.05 76.78438 31.05Q77.12813 31.05 77.33125 30.925Q77.55 30.815624 77.69063 30.6125Q77.78438 30.440624 78.01875 29.815624Q78.03438 29.7375 78.1125 29.565624L75.7375 23.33125L76.87813 23.33125L78.175 26.925Q78.425 27.6125 78.62813 28.378124Q78.81563 27.64375 79.06563 26.95625L80.39375 23.33125L81.44063 23.33125L79.08125 29.659374Q78.69063 30.675 78.4875 31.065624Q78.20625 31.596874 77.83125 31.83125Q77.47188 32.08125 76.97188 32.08125Q76.675 32.08125 76.3 31.940624ZM86.65938 29.55L86.65938 21.971874L83.83125 21.971874L83.83125 20.95625L90.64375 20.95625L90.64375 21.971874L87.8 21.971874L87.8 29.55L86.65938 29.55ZM91.34688 29.55L91.34688 20.95625L92.39375 20.95625L92.39375 24.034374Q93.12813 23.190624 94.25313 23.190624Q94.95625 23.190624 95.45625 23.471874Q95.97188 23.7375 96.19063 24.221874Q96.40938 24.690624 96.40938 25.6125L96.40938 29.55L95.3625 29.55L95.3625 25.6125Q95.3625 24.815624 95.01875 24.45625Q94.675 24.096874 94.05 24.096874Q93.58125 24.096874 93.15938 24.346874Q92.75313 24.58125 92.56563 25.003124Q92.39375 25.409374 92.39375 26.14375L92.39375 29.55L91.34688 29.55ZM102.59688 27.55L103.69063 27.675Q103.44063 28.628124 102.7375 29.159374Q102.03438 29.690624 100.95625 29.690624Q99.59688 29.690624 98.78438 28.846874Q97.9875 28.003124 97.9875 26.4875Q97.9875 24.925 98.8 24.065624Q99.6125 23.190624 100.89375 23.190624Q102.14375 23.190624 102.925 24.034374Q103.72188 24.878124 103.72188 26.425Q103.72188 26.51875 103.72188 26.70625L99.08125 26.70625Q99.14375 27.7375 99.65938 28.284374Q100.175 28.815624 100.95625 28.815624Q101.53438 28.815624 101.94063 28.51875Q102.3625 28.20625 102.59688 27.55ZM99.14375 25.846874L102.6125 25.846874Q102.55 25.05 102.22188 24.659374Q101.70625 24.05 100.90938 24.05Q100.175 24.05 99.675 24.534374Q99.19063 25.01875 99.14375 25.846874ZM108.47188 29.55L108.47188 20.95625L111.72188 20.95625Q112.56563 20.95625 113.01875 21.034374Q113.65938 21.14375 114.08125 21.440624Q114.51875 21.7375 114.76875 22.26875Q115.03438 22.8 115.03438 23.440624Q115.03438 24.534374 114.33125 25.3Q113.64375 26.05 111.81563 26.05L109.6125 26.05L109.6125 29.55L108.47188 29.55ZM109.6125 25.05L111.83125 25.05Q112.94063 25.05 113.39375 24.64375Q113.8625 24.221874 113.8625 23.471874Q113.8625 22.940624 113.58125 22.565624Q113.31563 22.175 112.87813 22.05Q112.58125 21.971874 111.81563 21.971874L109.6125 21.971874L109.6125 25.05ZM116.51875 29.55L116.51875 20.95625L117.64375 20.95625L117.64375 24.4875L122.1125 24.4875L122.1125 20.95625L123.25313 20.95625L123.25313 29.55L122.1125 29.55L122.1125 25.503124L117.64375 25.503124L117.64375 29.55L116.51875 29.55ZM125.47188 29.55L125.47188 20.95625L128.72188 20.95625Q129.56563 20.95625 130.01875 21.034374Q130.65938 21.14375 131.08125 21.440624Q131.51875 21.7375 131.76875 22.26875Q132.03438 22.8 132.03438 23.440624Q132.03438 24.534374 131.33125 25.3Q130.64375 26.05 128.81563 26.05L126.6125 26.05L126.6125 29.55L125.47188 29.55ZM126.6125 25.05L128.83125 25.05Q129.94063 25.05 130.39375 24.64375Q130.8625 24.221874 130.8625 23.471874Q130.8625 22.940624 130.58125 22.565624Q130.31563 22.175 129.87813 22.05Q129.58125 21.971874 128.81563 21.971874L126.6125 21.971874L126.6125 25.05Z" fill-rule="nonzero"/><path fill="#1a1a1a" d="M39.534374 43.55L39.534374 34.95625L45.33125 34.95625L45.33125 35.971874L40.675 35.971874L40.675 38.628124L44.70625 38.628124L44.70625 39.64375L40.675 39.64375L40.675 43.55L39.534374 43.55ZM45.95625 40.440624Q45.95625 38.70625 46.909374 37.878124Q47.70625 37.190624 48.8625 37.190624Q50.14375 37.190624 50.95625 38.034374Q51.784374 38.8625 51.784374 40.346874Q51.784374 41.55 51.425 42.2375Q51.065624 42.925 50.3625 43.315624Q49.675 43.690624 48.8625 43.690624Q47.565624 43.690624 46.753124 42.8625Q45.95625 42.01875 45.95625 40.440624ZM47.034374 40.440624Q47.034374 41.628124 47.55 42.221874Q48.08125 42.815624 48.8625 42.815624Q49.659374 42.815624 50.175 42.221874Q50.690624 41.628124 50.690624 40.409374Q50.690624 39.253124 50.159374 38.659374Q49.64375 38.065624 48.8625 38.065624Q48.08125 38.065624 47.55 38.659374Q47.034374 39.2375 47.034374 40.440624ZM57.425 43.55L57.425 42.628124Q56.690624 43.690624 55.440624 43.690624Q54.89375 43.690624 54.409374 43.4875Q53.940624 43.26875 53.70625 42.95625Q53.471874 42.628124 53.378124 42.159374Q53.315624 41.8625 53.315624 41.175L53.315624 37.33125L54.378124 37.33125L54.378124 40.784374Q54.378124 41.596874 54.440624 41.89375Q54.534374 42.3 54.846874 42.55Q55.175 42.784374 55.659374 42.784374Q56.128124 42.784374 56.534374 42.55Q56.95625 42.3 57.128124 41.878124Q57.315624 41.45625 57.315624 40.659374L57.315624 37.33125L58.3625 37.33125L58.3625 43.55L57.425 43.55ZM60.346874 43.55L60.346874 37.33125L61.284374 37.33125L61.284374 38.20625Q61.971874 37.190624 63.26875 37.190624Q63.83125 37.190624 64.3 37.39375Q64.78438 37.596874 65.01875 37.925Q65.25313 38.253124 65.34688 38.690624Q65.39375 38.9875 65.39375 39.721874L65.39375 43.55L64.34688 43.55L64.34688 39.76875Q64.34688 39.1125 64.22188 38.8Q64.09688 38.4875 63.784374 38.3Q63.471874 38.096874 63.05 38.096874Q62.378124 38.096874 61.878124 38.534374Q61.39375 38.95625 61.39375 40.14375L61.39375 43.55L60.346874 43.55ZM71.37813 43.55L71.37813 42.76875Q70.78438 43.690624 69.64375 43.690624Q68.89375 43.690624 68.26875 43.284374Q67.64375 42.8625 67.3 42.128124Q66.95625 41.39375 66.95625 40.440624Q66.95625 39.51875 67.26875 38.753124Q67.58125 37.9875 68.20625 37.596874Q68.83125 37.190624 69.59688 37.190624Q70.15938 37.190624 70.59688 37.425Q71.03438 37.659374 71.31563 38.034374L71.31563 34.95625L72.3625 34.95625L72.3625 43.55L71.37813 43.55ZM68.05 40.440624Q68.05 41.64375 68.55 42.2375Q69.05 42.815624 69.7375 42.815624Q70.425 42.815624 70.90938 42.253124Q71.39375 41.690624 71.39375 40.534374Q71.39375 39.253124 70.89375 38.659374Q70.40938 38.065624 69.69063 38.065624Q68.9875 38.065624 68.51875 38.64375Q68.05 39.20625 68.05 40.440624ZM78.40938 42.784374Q77.81563 43.284374 77.26875 43.4875Q76.7375 43.690624 76.1125 43.690624Q75.08125 43.690624 74.53438 43.190624Q73.9875 42.690624 73.9875 41.909374Q73.9875 41.45625 74.19063 41.08125Q74.39375 40.690624 74.7375 40.471874Q75.08125 40.2375 75.50313 40.128124Q75.8 40.034374 76.44063 39.95625Q77.70625 39.815624 78.31563 39.596874Q78.31563 39.378124 78.31563 39.33125Q78.31563 38.675 78.01875 38.409374Q77.6125 38.065624 76.81563 38.065624Q76.08125 38.065624 75.72188 38.33125Q75.3625 38.58125 75.19063 39.2375L74.15938 39.096874Q74.3 38.440624 74.62813 38.034374Q74.95625 37.628124 75.56563 37.409374Q76.175 37.190624 76.97188 37.190624Q77.76875 37.190624 78.26875 37.378124Q78.76875 37.565624 79.00313 37.846874Q79.2375 38.128124 79.33125 38.565624Q79.37813 38.83125 79.37813 39.534374L79.37813 40.940624Q79.37813 42.409374 79.44063 42.8Q79.51875 43.190624 79.72188 43.55L78.6125 43.55Q78.45625 43.221874 78.40938 42.784374ZM78.31563 40.425Q77.7375 40.659374 76.59688 40.83125Q75.94063 40.925 75.675 41.05Q75.40938 41.159374 75.25313 41.378124Q75.1125 41.596874 75.1125 41.878124Q75.1125 42.3 75.425 42.58125Q75.75313 42.8625 76.3625 42.8625Q76.97188 42.8625 77.44063 42.596874Q77.925 42.33125 78.14375 41.8625Q78.31563 41.503124 78.31563 40.815624L78.31563 40.425ZM83.64375 42.6125L83.8 43.534374Q83.34688 43.628124 83.00313 43.628124Q82.425 43.628124 82.1125 43.45625Q81.8 43.26875 81.65938 42.971874Q81.53438 42.675 81.53438 41.721874L81.53438 38.14375L80.76875 38.14375L80.76875 37.33125L81.53438 37.33125L81.53438 35.784374L82.58125 35.159374L82.58125 37.33125L83.64375 37.33125L83.64375 38.14375L82.58125 38.14375L82.58125 41.784374Q82.58125 42.2375 82.62813 42.3625Q82.69063 42.4875 82.81563 42.565624Q82.94063 42.64375 83.175 42.64375Q83.3625 42.64375 83.64375 42.6125ZM84.34688 36.175L84.34688 34.95625L85.40938 34.95625L85.40938 36.175L84.34688 36.175ZM84.34688 43.55L84.34688 37.33125L85.40938 37.33125L85.40938 43.55L84.34688 43.55ZM86.95625 40.440624Q86.95625 38.70625 87.90938 37.878124Q88.70625 37.190624 89.8625 37.190624Q91.14375 37.190624 91.95625 38.034374Q92.78438 38.8625 92.78438 40.346874Q92.78438 41.55 92.425 42.2375Q92.06563 42.925 91.3625 43.315624Q90.675 43.690624 89.8625 43.690624Q88.56563 43.690624 87.75313 42.8625Q86.95625 42.01875 86.95625 40.440624ZM88.03438 40.440624Q88.03438 41.628124 88.55 42.221874Q89.08125 42.815624 89.8625 42.815624Q90.65938 42.815624 91.175 42.221874Q91.69063 41.628124 91.69063 40.409374Q91.69063 39.253124 91.15938 38.659374Q90.64375 38.065624 89.8625 38.065624Q89.08125 38.065624 88.55 38.659374Q88.03438 39.2375 88.03438 40.440624ZM94.34688 43.55L94.34688 37.33125L95.28438 37.33125L95.28438 38.20625Q95.97188 37.190624 97.26875 37.190624Q97.83125 37.190624 98.3 37.39375Q98.78438 37.596874 99.01875 37.925Q99.25313 38.253124 99.34688 38.690624Q99.39375 38.9875 99.39375 39.721874L99.39375 43.55L98.34688 43.55L98.34688 39.76875Q98.34688 39.1125 98.22188 38.8Q98.09688 38.4875 97.78438 38.3Q97.47188 38.096874 97.05 38.096874Q96.37813 38.096874 95.87813 38.534374Q95.39375 38.95625 95.39375 40.14375L95.39375 43.55L94.34688 43.55Z" fill-rule="nonzero"/><path fill="#4a86e8" d="M30.55 63.55C30.55 66.86371 27.863708 69.55 24.55 69.55C21.236292 69.55 18.55 66.86371 18.55 63.55C18.55 60.23629 21.236292 57.55 24.55 57.55C27.863708 57.55 30.55 60.23629 30.55 63.55Z" fill-rule="nonzero"/><path fill="#1a1a1a" d="M41.659374 67.55L41.659374 59.971878L38.83125 59.971878L38.83125 58.956253L45.64375 58.956253L45.64375 59.971878L42.8 59.971878L42.8 67.55L41.659374 67.55ZM45.95625 64.44063Q45.95625 62.706253 46.909374 61.878128Q47.70625 61.190628 48.8625 61.190628Q50.14375 61.190628 50.95625 62.034378Q51.784374 62.862503 51.784374 64.34688Q51.784374 65.55 51.425 66.2375Q51.065624 66.925 50.3625 67.31563Q49.675 67.69063 48.8625 67.69063Q47.565624 67.69063 46.753124 66.8625Q45.95625 66.01875 45.95625 64.44063ZM47.034374 64.44063Q47.034374 65.62813 47.55 66.22188Q48.08125 66.81563 48.8625 66.81563Q49.659374 66.81563 50.175 66.22188Q50.690624 65.62813 50.690624 64.40938Q50.690624 63.253128 50.159374 62.659378Q49.64375 62.065628 48.8625 62.065628Q48.08125 62.065628 47.55 62.659378Q47.034374 63.237503 47.034374 64.44063ZM55.64375 66.6125L55.8 67.53438Q55.346874 67.62813 55.003124 67.62813Q54.425 67.62813 54.1125 67.45625Q53.8 67.26875 53.659374 66.97188Q53.534374 66.675 53.534374 65.72188L53.534374 62.143753L52.76875 62.143753L52.76875 61.331253L53.534374 61.331253L53.534374 59.784378L54.58125 59.159378L54.58125 61.331253L55.64375 61.331253L55.64375 62.143753L54.58125 62.143753L54.58125 65.78438Q54.58125 66.2375 54.628124 66.3625Q54.690624 66.4875 54.815624 66.56563Q54.940624 66.64375 55.175 66.64375Q55.3625 66.64375 55.64375 66.6125ZM60.409374 66.78438Q59.815624 67.28438 59.26875 67.4875Q58.7375 67.69063 58.1125 67.69063Q57.08125 67.69063 56.534374 67.19063Q55.9875 66.69063 55.9875 65.90938Q55.9875 65.45625 56.190624 65.08125Q56.39375 64.69063 56.7375 64.47188Q57.08125 64.2375 57.503124 64.12813Q57.8 64.03438 58.440624 63.956253Q59.70625 63.815628 60.315624 63.596878Q60.315624 63.378128 60.315624 63.331253Q60.315624 62.675003 60.01875 62.409378Q59.6125 62.065628 58.815624 62.065628Q58.08125 62.065628 57.721874 62.331253Q57.3625 62.581253 57.190624 63.237503L56.159374 63.096878Q56.3 62.440628 56.628124 62.034378Q56.95625 61.628128 57.565624 61.409378Q58.175 61.190628 58.971874 61.190628Q59.76875 61.190628 60.26875 61.378128Q60.76875 61.565628 61.003124 61.846878Q61.2375 62.128128 61.33125 62.565628Q61.378124 62.831253 61.378124 63.534378L61.378124 64.94063Q61.378124 66.40938 61.440624 66.8Q61.51875 67.19063 61.721874 67.55L60.6125 67.55Q60.45625 67.22188 60.409374 66.78438ZM60.315624 64.425Q59.7375 64.65938 58.596874 64.83125Q57.940624 64.925 57.675 65.05Q57.409374 65.15938 57.253124 65.37813Q57.1125 65.59688 57.1125 65.87813Q57.1125 66.3 57.425 66.58125Q57.753124 66.8625 58.3625 66.8625Q58.971874 66.8625 59.440624 66.59688Q59.925 66.33125 60.14375 65.8625Q60.315624 65.50313 60.315624 64.81563L60.315624 64.425ZM63.315624 67.55L63.315624 58.956253L64.37813 58.956253L64.37813 67.55L63.315624 67.55ZM68.95625 64.44063Q68.95625 62.706253 69.90938 61.878128Q70.70625 61.190628 71.8625 61.190628Q73.14375 61.190628 73.95625 62.034378Q74.78438 62.862503 74.78438 64.34688Q74.78438 65.55 74.425 66.2375Q74.06563 66.925 73.3625 67.31563Q72.675 67.69063 71.8625 67.69063Q70.56563 67.69063 69.75313 66.8625Q68.95625 66.01875 68.95625 64.44063ZM70.03438 64.44063Q70.03438 65.62813 70.55 66.22188Q71.08125 66.81563 71.8625 66.81563Q72.65938 66.81563 73.175 66.22188Q73.69063 65.62813 73.69063 64.40938Q73.69063 63.253128 73.15938 62.659378Q72.64375 62.065628 71.8625 62.065628Q71.08125 62.065628 70.55 62.659378Q70.03438 63.237503 70.03438 64.44063ZM78.64375 66.6125L78.8 67.53438Q78.34688 67.62813 78.00313 67.62813Q77.425 67.62813 77.1125 67.45625Q76.8 67.26875 76.65938 66.97188Q76.53438 66.675 76.53438 65.72188L76.53438 62.143753L75.76875 62.143753L75.76875 61.331253L76.53438 61.331253L76.53438 59.784378L77.58125 59.159378L77.58125 61.331253L78.64375 61.331253L78.64375 62.143753L77.58125 62.143753L77.58125 65.78438Q77.58125 66.2375 77.62813 66.3625Q77.69063 66.4875 77.81563 66.56563Q77.94063 66.64375 78.175 66.64375Q78.3625 66.64375 78.64375 66.6125ZM79.34688 67.55L79.34688 58.956253L80.39375 58.956253L80.39375 62.034378Q81.12813 61.190628 82.25313 61.190628Q82.95625 61.190628 83.45625 61.471878Q83.97188 61.737503 84.19063 62.221878Q84.40938 62.690628 84.40938 63.612503L84.40938 67.55L83.3625 67.55L83.3625 63.612503Q83.3625 62.815628 83.01875 62.456253Q82.675 62.096878 82.05 62.096878Q81.58125 62.096878 81.15938 62.346878Q80.75313 62.581253 80.56563 63.003128Q80.39375 63.409378 80.39375 64.14375L80.39375 67.55L79.34688 67.55ZM90.59688 65.55L91.69063 65.675Q91.44063 66.62813 90.7375 67.15938Q90.03438 67.69063 88.95625 67.69063Q87.59688 67.69063 86.78438 66.84688Q85.9875 66.00313 85.9875 64.4875Q85.9875 62.925003 86.8 62.065628Q87.6125 61.190628 88.89375 61.190628Q90.14375 61.190628 90.925 62.034378Q91.72188 62.878128 91.72188 64.425Q91.72188 64.51875 91.72188 64.70625L87.08125 64.70625Q87.14375 65.7375 87.65938 66.28438Q88.175 66.81563 88.95625 66.81563Q89.53438 66.81563 89.94063 66.51875Q90.3625 66.20625 90.59688 65.55ZM87.14375 63.846878L90.6125 63.846878Q90.55 63.050003 90.22188 62.659378Q89.70625 62.050003 88.90938 62.050003Q88.175 62.050003 87.675 62.534378Q87.19063 63.018753 87.14375 63.846878ZM93.33125 67.55L93.33125 61.331253L94.28438 61.331253L94.28438 62.268753Q94.64375 61.612503 94.94063 61.409378Q95.25313 61.190628 95.62813 61.190628Q96.15938 61.190628 96.70625 61.518753L96.34688 62.503128Q95.95625 62.268753 95.58125 62.268753Q95.22188 62.268753 94.94063 62.487503Q94.675 62.690628 94.56563 63.065628Q94.37813 63.628128 94.37813 64.28438L94.37813 67.55L93.33125 67.55Z" fill-rule="nonzero"/></svg>