<?xml version="1.0" encoding="UTF-8"?><svg id="STF_Logo" xmlns="http://www.w3.org/2000/svg" viewBox="0 0 534 230"><defs><style>.cls-1{stroke-width:0px;}</style></defs><path class="cls-1" d="m23.89,76.56h16.68c.6,6.96,4.8,12.12,11.88,12.12h5.52c5.04,0,10.56-3.48,10.56-10.2,0-16.8-43.56-5.64-43.56-37.32,0-14.4,11.88-24.12,25.8-24.12h6c13.8,0,25.2,8.64,26.4,24.24h-16.56c-.84-6.36-4.44-9.96-10.32-9.96h-5.28c-4.8,0-9.24,3.36-9.24,8.76,0,16.8,43.68,4.56,43.68,37.56,0,15.6-11.64,25.32-27.96,25.32h-5.88c-15.48,0-27-10.68-27.72-26.4Zm65.52-4.8c0-18.12,11.52-31.2,26.76-31.2h4.8c15.36,0,26.76,13.08,26.76,31.2s-11.4,31.2-26.64,31.2h-4.8c-15.36,0-26.88-13.2-26.88-31.2Zm42.72,0c0-10.08-5.16-17.88-11.76-17.88h-3.6c-6.6,0-11.76,7.56-11.76,17.88s5.16,17.88,11.76,17.88h3.72c6.48,0,11.64-7.8,11.64-17.88Zm15.69-30.24h15.84l11.76,35.64c.84,2.4,2.88,2.4,3.72,0l11.4-35.64h15.84l-21.36,60.48h-15.84l-21.36-60.48Zm74.76,37.08c.96,5.4,4.44,11.52,10.8,11.52h4.32c5.16,0,8.88-3.84,9.72-8.52h15c-1.32,12.6-12.12,21.36-24.96,21.36h-4.08c-15.6,0-26.88-13.08-26.88-31.32,0-19.44,13.08-31.08,26.52-31.08h4.32c14.76,0,25.32,12.96,25.32,29.28,0,2.64-.12,4.08-.24,5.28h-36.72c-2.28,0-3.48,1.44-3.12,3.48Zm4.2-14.4h16.8c2.64,0,3.84-1.56,2.88-3.96-1.2-4.44-4.8-7.68-9-7.68h-4.08c-3.72,0-7.32,2.76-9.24,7.56-1.08,2.4-.12,4.08,2.64,4.08Zm57.96,4.32v33.48h-15.48v-60.48h15.48v2.4c0,2.64,1.68,3.12,3.96,1.08,2.4-2.28,5.04-3.48,9.24-3.48h6.48v12.96h-8.16c-7.44,0-11.52,6.96-11.52,14.04Zm36.12,10.08c.96,5.4,4.44,11.52,10.8,11.52h4.32c5.16,0,8.88-3.84,9.72-8.52h15c-1.32,12.6-12.12,21.36-24.96,21.36h-4.08c-15.6,0-26.88-13.08-26.88-31.32,0-19.44,13.08-31.08,26.52-31.08h4.32c14.76,0,25.32,12.96,25.32,29.28,0,2.64-.12,4.08-.24,5.28h-36.72c-2.28,0-3.48,1.44-3.12,3.48Zm4.2-14.4h16.8c2.64,0,3.84-1.56,2.88-3.96-1.2-4.44-4.8-7.68-9-7.68h-4.08c-3.72,0-7.32,2.76-9.24,7.56-1.08,2.4-.12,4.08,2.64,4.08Zm60.84-46.2v13.92h-16.56v-13.92h16.56Zm-16.08,23.52h15.48v60.48h-15.48v-60.48Zm19.44,67.92c0-4.32,1.56-8.16,4.32-11.04,1.2-1.32,1.32-2.64.24-4.08-1.56-2.04-2.4-4.32-2.4-6.72,0-4.2,2.88-7.8,6.84-9.72,1.8-.96,2.16-2.16.84-3.84-3.12-3.6-4.56-7.8-4.56-12.48,0-12.6,9.6-21,21.96-21h3.96c4.56,0,8.52.96,14.88.96h13.44v10.56h-5.4c-2.64,0-3.12,1.32-2.4,3.48.96,2.16,1.44,4.32,1.44,6.72,0,11.64-10.32,20.4-21.84,20.4h-9.96c-2.52,0-4.44,1.32-4.44,3.6,0,2.16,1.92,3.6,4.8,3.6h18.36c11.76,0,19.32,7.2,19.32,17.52,0,11.88-10.08,19.08-23.28,19.08h-13.44c-14.64,0-22.68-6.96-22.68-17.04Zm44.16-1.68c0-3.6-2.64-6-7.08-6h-14.64c-5.76,0-7.08,3.48-7.08,6.24,0,3.72,2.52,6.36,7.56,6.36h13.92c4.56,0,7.32-2.52,7.32-6.6Zm-5.88-46.2c0-4.56-3-9-7.56-9h-3.12c-3.48,0-7.56,3.48-7.56,9s4.08,9.12,7.32,9.12h3.36c4.56,0,7.56-4.44,7.56-9.12Zm27.83-20.04h15.48v2.52c0,2.4,1.8,3.36,4.44,1.2,3.12-2.76,6.84-4.68,11.28-4.68h4.32c10.44,0,19.2,9.84,19.2,23.16v38.28h-15.48v-35.76c0-6.48-3.48-11.88-9-11.88h-3.84c-6.36,0-10.92,6.72-10.92,15.36v32.28h-15.48v-60.48ZM39.29,134.26h-19.44v-14.28h62.52v14.28h-19.2c-2.28,0-3.6,1.32-3.6,3.6v66.12h-16.68v-66.12c0-2.28-1.32-3.6-3.6-3.6Zm44.28,46.32c.96,5.4,4.44,11.52,10.8,11.52h4.32c5.16,0,8.88-3.84,9.72-8.52h15c-1.32,12.6-12.12,21.36-24.96,21.36h-4.08c-15.6,0-26.88-13.08-26.88-31.32,0-19.44,13.08-31.08,26.52-31.08h4.32c14.76,0,25.32,12.96,25.32,29.28,0,2.64-.12,4.08-.24,5.28h-36.72c-2.28,0-3.48,1.44-3.12,3.48Zm4.2-14.4h16.8c2.64,0,3.84-1.56,2.88-3.96-1.2-4.44-4.8-7.68-9-7.68h-4.08c-3.72,0-7.32,2.76-9.24,7.56-1.08,2.4-.12,4.08,2.64,4.08Zm41.59,7.56c0-17.4,10.56-31.2,27.24-31.2h3.84c13.92,0,24,10.32,24.72,24.84h-15.48c-.6-6.72-4.32-11.52-9.48-11.52h-3.6c-7.32,0-11.52,8.28-11.52,17.88s4.2,17.88,11.28,17.88h3.6c5.4,0,8.88-4.92,9.96-11.28h15.48c-1.56,13.92-11.04,24.6-25.32,24.6h-3.72c-16.56,0-27-13.92-27-31.2Zm61.92-53.76h15.48v26.04c0,2.4,1.8,3.36,4.44,1.2,3.12-2.76,6.84-4.68,11.28-4.68h4.32c10.44,0,19.2,9.84,19.2,23.16v38.28h-15.48v-35.76c0-6.48-3.48-11.88-9-11.88h-3.84c-6.36,0-10.92,6.72-10.92,15.36v32.28h-15.48v-84Zm76.88,0h55.92v14.28h-35.52c-2.04,0-3.72,1.68-3.72,3.72v12.24c0,2.04,1.68,3.72,3.72,3.72h33.48v14.28h-33.48c-2.04,0-3.72,1.68-3.72,3.72v32.04h-16.68v-84Zm113.52,84h-15.48v-2.52c0-2.4-1.8-3.36-4.44-1.2-3.12,2.76-6.84,4.68-11.28,4.68h-4.32c-10.44,0-19.2-9.84-19.2-23.16v-38.28h15.48v35.76c0,6.48,3.48,11.88,9,11.88h3.84c6.36,0,10.92-6.72,10.92-15.36v-32.28h15.48v60.48Zm9.24-60.48h15.48v2.52c0,2.4,1.8,3.36,4.44,1.2,3.12-2.76,6.84-4.68,11.28-4.68h4.32c10.44,0,19.2,9.84,19.2,23.16v38.28h-15.48v-35.76c0-6.48-3.48-11.88-9-11.88h-3.84c-6.36,0-10.92,6.72-10.92,15.36v32.28h-15.48v-60.48Zm60.36,30.24c0-17.16,10.08-31.2,25.2-31.2h2.88c3.6,0,7.32,1.56,10.2,3.84,2.88,1.92,4.44.72,4.44-1.68v-24.72h15.48v84h-15.48v-1.8c0-2.16-1.92-3-3.96-1.44-2.88,2.4-6.84,4.2-10.8,4.2h-2.64c-15.36,0-25.32-14.16-25.32-31.2Zm43.8,0c0-10.44-5.28-17.88-12.12-17.88h-3.84c-6.6,0-12.24,7.32-12.24,17.88s5.64,17.88,12.24,17.88h3.84c6.84,0,12.12-7.44,12.12-17.88Z"/></svg>