<svg width="160" height="29" viewBox="0 0 160 29" fill="none"
  xmlns="http://www.w3.org/2000/svg">
  <path d="M44.985 9.6615C44.7884 9.31867 44.5534 8.99925 44.2847 8.70943C43.7645 8.15179 43.138 7.70383 42.4421 7.39193C41.7311 7.06577 40.958 6.89714 40.1757 6.89752C39.0539 6.87224 37.9496 7.17767 37.0002 7.77581C36.0334 8.43321 35.2941 9.37419 34.8842 10.4692C34.3411 11.903 34.0845 13.4295 34.1287 14.9621V15.9572C34.0844 17.4882 34.3303 19.0138 34.8535 20.4533C35.2458 21.5357 35.9649 22.4693 36.9112 23.1251C37.8605 23.7223 38.9655 24.0248 40.0866 23.9942C40.8739 23.998 41.6529 23.8337 42.3715 23.5121C43.0801 23.1988 43.7214 22.7514 44.2602 22.1946C44.5261 21.9186 44.7657 21.6184 44.9757 21.2979V23.5397H52.0392V7.35204H44.9757L44.985 9.6615ZM45.16 15.8251C45.1745 16.512 45.1033 17.1982 44.9481 17.8675C44.8566 18.318 44.6443 18.7351 44.3339 19.0743C44.198 19.2054 44.0373 19.308 43.8611 19.376C43.685 19.4441 43.497 19.4762 43.3082 19.4705C43.1233 19.4755 42.9391 19.4431 42.7671 19.375C42.595 19.3069 42.4384 19.2046 42.307 19.0743C41.9942 18.7392 41.7815 18.3234 41.6928 17.8736C41.5474 17.2009 41.4814 16.5132 41.4962 15.8251V14.9621C41.4809 14.2796 41.5502 13.5978 41.7021 12.9322C41.7888 12.4922 41.9961 12.0849 42.3008 11.7559C42.4329 11.6293 42.5891 11.5306 42.76 11.4652C42.9309 11.3998 43.1131 11.3691 43.2959 11.3752C43.6746 11.3626 44.0429 11.4993 44.3216 11.7559C44.6326 12.0826 44.8455 12.4902 44.9358 12.9322C45.0916 13.5972 45.1628 14.2792 45.1477 14.9621L45.16 15.8251Z" fill="black"/>
  <path d="M69.0228 7.546C68.2385 7.10178 67.347 6.8819 66.4461 6.91034C65.5689 6.89745 64.6994 7.07449 63.8972 7.42934C63.1644 7.75789 62.5068 8.23345 61.9654 8.82662C61.6036 9.22935 61.2987 9.68 61.0594 10.1657V7.36485H54.2233V23.5525H61.2652V13.8479C61.2518 13.483 61.3244 13.1201 61.477 12.7884C61.5941 12.531 61.7884 12.3163 62.0329 12.1742C62.2633 12.0474 62.5224 11.9818 62.7854 11.9838C62.9678 11.9736 63.1503 12.0022 63.3207 12.0679C63.4912 12.1335 63.6457 12.2346 63.7742 12.3645C64.0467 12.7129 64.1753 13.1526 64.1335 13.5929V23.5586H71.1725V12.6839C71.2056 11.5894 71.0197 10.4994 70.6258 9.47772C70.3089 8.68225 69.7476 8.00798 69.0228 7.55215" fill="black"/>
  <path d="M100.983 17.1711C101.01 17.847 100.839 18.5161 100.492 19.0966C100.348 19.306 100.154 19.4755 99.9277 19.5894C99.701 19.7033 99.4491 19.7576 99.1956 19.7476C98.7997 19.7649 98.4123 19.6286 98.1146 19.3669C97.792 19.0157 97.5786 18.5781 97.5004 18.1077C97.3466 17.322 97.2787 16.5219 97.2977 15.7215V14.9751C97.2977 13.5901 97.4544 12.6044 97.7738 12.0209C97.9086 11.7459 98.1208 11.5163 98.3843 11.3603C98.6478 11.2043 98.9511 11.1285 99.257 11.1424C99.5036 11.1258 99.7503 11.1737 99.9727 11.2814C100.195 11.3891 100.386 11.5529 100.525 11.7566C100.837 12.3067 100.986 12.934 100.955 13.5655V13.6516H108.172C108.142 12.3473 107.724 11.0814 106.972 10.0154C106.183 8.9613 105.105 8.15821 103.87 7.70291C102.349 7.13926 100.735 6.86831 99.1127 6.9044C97.4861 6.87585 95.8711 7.18219 94.3679 7.80428C93.0212 8.37295 91.8787 9.33669 91.0911 10.5682C90.2906 11.7967 89.8903 13.3382 89.8903 15.1932V15.6478C89.8903 17.4905 90.2782 19.0393 91.0542 20.2943C91.8216 21.5312 92.9505 22.5025 94.2881 23.0767C95.8095 23.7154 97.4477 24.0292 99.0974 23.9981C100.697 24.0273 102.289 23.7575 103.79 23.2026C105.063 22.7366 106.177 21.9187 107.002 20.8441C107.801 19.7537 108.241 18.4423 108.261 17.0911H100.983V17.1711Z" fill="black"/>
  <path d="M124.443 7.54468C123.66 7.09528 122.769 6.87106 121.866 6.89672C120.99 6.88379 120.122 7.06084 119.321 7.41571C118.587 7.74266 117.929 8.21858 117.389 8.81315C117.123 9.10845 116.888 9.42931 116.686 9.77121V2.36688H109.644V23.5389H116.686V13.8342C116.672 13.4693 116.745 13.1065 116.897 12.7748C117.016 12.518 117.21 12.3037 117.453 12.1606C117.685 12.0332 117.945 11.9676 118.209 11.9701C118.391 11.9602 118.574 11.9889 118.744 12.0546C118.914 12.1202 119.069 12.2212 119.198 12.3509C119.468 12.7005 119.595 13.1395 119.554 13.5793V23.545H126.596V12.6703C126.628 11.5756 126.441 10.4855 126.046 9.4641C125.731 8.66752 125.169 7.99272 124.443 7.53853" fill="black"/>
  <path d="M139.064 9.66154C138.868 9.31871 138.633 8.99929 138.364 8.70947C137.844 8.15183 137.218 7.70387 136.522 7.39197C135.815 7.07262 135.049 6.90827 134.274 6.90986C133.152 6.88457 132.047 7.19 131.098 7.78815C130.132 8.44644 129.393 9.38712 128.982 10.4815C128.439 11.9154 128.182 13.4418 128.227 14.9744V15.9695C128.182 17.5005 128.428 19.0261 128.951 20.4656C129.344 21.548 130.063 22.4816 131.009 23.1374C131.958 23.7347 133.063 24.0371 134.185 24.0065C134.972 24.0104 135.751 23.846 136.469 23.5244C137.178 23.2111 137.819 22.7637 138.358 22.2069C138.624 21.931 138.864 21.6308 139.074 21.3102V23.552H146.137V7.36438H139.074L139.064 9.66154ZM139.243 15.8251C139.256 16.5122 139.184 17.1984 139.028 17.8675C138.936 18.3181 138.724 18.7351 138.413 19.0744C138.277 19.2055 138.117 19.308 137.941 19.3761C137.764 19.4441 137.576 19.4763 137.388 19.4705C137.203 19.4756 137.019 19.4431 136.846 19.375C136.674 19.3069 136.518 19.2046 136.386 19.0744C136.074 18.7392 135.861 18.3234 135.772 17.8737C135.627 17.2009 135.561 16.5133 135.576 15.8251V14.9621C135.56 14.2796 135.63 13.5978 135.781 12.9322C135.868 12.4922 136.076 12.085 136.38 11.756C136.512 11.6294 136.669 11.5306 136.839 11.4652C137.01 11.3998 137.192 11.3692 137.375 11.3752C137.754 11.3626 138.122 11.4993 138.401 11.756C138.712 12.0827 138.925 12.4903 139.015 12.9322C139.172 13.5971 139.245 14.2791 139.23 14.9621L139.243 15.8251Z" fill="black"/>
  <path d="M160 11.6973V7.36408H156.984V2.37973H149.945V7.36408H147.47V11.6973H149.927V18.7608C149.879 19.7987 150.153 20.826 150.71 21.7029C151.226 22.4493 151.963 23.0152 152.817 23.3214C153.798 23.6629 154.831 23.8282 155.869 23.8097C156.648 23.8187 157.426 23.7426 158.188 23.5825C158.813 23.4502 159.42 23.244 159.997 22.9683V19.1479C159.511 19.3103 159.002 19.3942 158.489 19.3966C158.092 19.4252 157.698 19.3168 157.371 19.0895C157.11 18.8807 156.981 18.5121 156.981 17.9839V11.6912L160 11.6973Z" fill="black"/>
  <path d="M27.8915 0.00614816H27.6642C20.9416 0.00614816 17.674 10.0639 17.674 10.0639V2.34635H0V23.5582H7.06348V9.41598H10.8317V23.5582H18.411C18.411 23.5582 22.3052 6.77177 25.9506 8.02784C28.4075 8.94917 21.4791 23.5429 21.4791 23.5429H31.4877C31.4877 23.5429 32.8758 14.0379 32.8973 10.7488C33.2044 5.16248 32.323 0 27.8853 0" fill="black"/>
  <path d="M77.4955 24.4947C77.5058 24.2161 77.4236 23.9419 77.262 23.7147C77.0874 23.4942 76.8496 23.3324 76.5803 23.251C76.2265 23.1414 75.8573 23.0896 75.487 23.0974L71.7219 7.36431H79.0525L81.2484 20.8586H80.5789L82.876 7.36431H90.0593L86.4969 23.0974C86.1031 23.0851 85.71 23.137 85.3329 23.251C85.0775 23.3265 84.8547 23.4855 84.7002 23.7025C84.559 23.9419 84.4907 24.2171 84.5037 24.4947V28.2169H77.4955V24.4947Z" fill="black"/>
</svg>
